<svg width="24" height="24" viewBox="0 0 24 24" fill="none" xmlns="http://www.w3.org/2000/svg">
<path d="M3.27109 12.7318V17.8442C3.27109 22.435 3.72097 23.2632 8.65948 23.2326H15.2646C19.9066 23.2326 20.6632 22.3532 20.6632 17.7624V12.65" stroke="white" stroke-width="1.5" stroke-linecap="round" stroke-linejoin="round"/>
<path d="M0.76685 9.81827V8.60154C0.76685 6.94514 1.38032 6.23964 3.11851 6.23964H20.8174C22.5556 6.23964 23.1793 6.94514 23.1793 8.59131V9.81827C23.1793 11.4747 22.5556 12.1802 20.8174 12.1802H3.11851C1.38032 12.1393 0.76685 11.4338 0.76685 9.81827Z" stroke="white" stroke-width="1.5" stroke-linecap="round" stroke-linejoin="round"/>
<path d="M18.6293 2.6609C18.3576 2.30905 18.011 2.02208 17.6145 1.82082C17.2181 1.61956 16.7819 1.50905 16.3375 1.4973C15.893 1.48555 15.4516 1.57287 15.0451 1.75291C14.6386 1.93294 14.2773 2.2012 13.9873 2.53821C13.2119 3.61498 12.7101 4.86422 12.5252 6.17818H15.3472C18.2817 6.19863 20.4289 4.70583 18.6293 2.6609Z" stroke="white" stroke-width="1.5" stroke-linecap="round" stroke-linejoin="round"/>
<path d="M10.829 1.96562C10.4885 1.57723 10.0667 1.26857 9.59348 1.0616C9.12027 0.854629 8.60727 0.754417 8.09095 0.768081C7.57464 0.781745 7.06769 0.908954 6.60609 1.14067C6.14448 1.37238 5.73956 1.70291 5.42012 2.10877C3.37518 4.45022 5.81889 6.19863 9.23393 6.19863H12.5263C12.3079 4.672 11.7258 3.22021 10.829 1.96562Z" stroke="white" stroke-width="1.5" stroke-linecap="round" stroke-linejoin="round"/>
</svg>
