<svg width="428" height="93" viewBox="0 0 428 93" fill="none" xmlns="http://www.w3.org/2000/svg">
<g filter="url(#filter0_d_37_3533)">
<rect width="428" height="93" fill="#F9F9FB"/>
</g>
<path d="M381.031 43.9254H383.107C385.184 43.9254 386.222 42.8487 386.222 40.6952V38.5417C386.222 36.3883 385.184 35.3115 383.107 35.3115H381.031C378.954 35.3115 377.916 36.3883 377.916 38.5417V40.6952C377.916 42.8487 378.954 43.9254 381.031 43.9254Z" stroke="#8E949A" stroke-width="1.5" stroke-miterlimit="10" stroke-linecap="round" stroke-linejoin="round"/>
<path d="M393.49 43.9254H395.567C397.643 43.9254 398.682 42.8487 398.682 40.6952V38.5417C398.682 36.3883 397.643 35.3115 395.567 35.3115H393.49C391.414 35.3115 390.375 36.3883 390.375 38.5417V40.6952C390.375 42.8487 391.414 43.9254 393.49 43.9254Z" stroke="#8E949A" stroke-width="1.5" stroke-miterlimit="10" stroke-linecap="round" stroke-linejoin="round"/>
<path d="M393.49 56.8463H395.567C397.643 56.8463 398.682 55.7696 398.682 53.6161V51.4626C398.682 49.3092 397.643 48.2324 395.567 48.2324H393.49C391.414 48.2324 390.375 49.3092 390.375 51.4626V53.6161C390.375 55.7696 391.414 56.8463 393.49 56.8463Z" stroke="#8E949A" stroke-width="1.5" stroke-miterlimit="10" stroke-linecap="round" stroke-linejoin="round"/>
<path d="M381.031 56.8463H383.107C385.184 56.8463 386.222 55.7696 386.222 53.6161V51.4626C386.222 49.3092 385.184 48.2324 383.107 48.2324H381.031C378.954 48.2324 377.916 49.3092 377.916 51.4626V53.6161C377.916 55.7696 378.954 56.8463 381.031 56.8463Z" stroke="#8E949A" stroke-width="1.5" stroke-miterlimit="10" stroke-linecap="round" stroke-linejoin="round"/>
<path d="M307.308 56.9898V45.1098C307.308 43.9598 306.838 43.5498 305.748 43.5498H304.978C303.888 43.5498 303.418 43.9598 303.418 45.1098V56.9898" stroke="#8E949A" stroke-width="1.5" stroke-linecap="round" stroke-linejoin="round"/>
<path d="M299.789 56.9898V48.3598C299.789 47.2098 299.319 46.7998 298.229 46.7998H297.449C296.359 46.7998 295.899 47.2098 295.899 48.3598V56.9898" stroke="#8E949A" stroke-width="1.5" stroke-linecap="round" stroke-linejoin="round"/>
<path d="M292.229 56.9903V51.6303C292.229 50.4803 291.759 50.0703 290.669 50.0703H289.889C288.799 50.0703 288.339 50.4803 288.339 51.6303V57.0103" stroke="#8E949A" stroke-width="1.5" stroke-linecap="round" stroke-linejoin="round"/>
<path d="M286.839 56.9902H308.839" stroke="#8E949A" stroke-width="1.5" stroke-linecap="round" stroke-linejoin="round"/>
<path d="M288.329 41.8098L306.409 37.2598" stroke="#8E949A" stroke-width="1.5" stroke-linecap="round" stroke-linejoin="round"/>
<path d="M305.309 40.63L306.729 38.05C306.883 37.7715 306.92 37.4434 306.832 37.1377C306.743 36.8321 306.538 36.5739 306.259 36.42L303.679 35" stroke="#8E949A" stroke-width="1.5" stroke-linecap="round" stroke-linejoin="round"/>
<path d="M214.139 35H207.539C203.287 35 199.839 38.4474 199.839 42.7V49.3C199.839 53.5526 203.287 57 207.539 57H214.139C218.392 57 221.839 53.5526 221.839 49.3V42.7C221.839 38.4474 218.392 35 214.139 35Z" stroke="#8E949A" stroke-width="1.5" stroke-linecap="round" stroke-linejoin="round"/>
<path d="M203.639 46H218.039" stroke="#8E949A" stroke-width="1.5" stroke-linecap="round" stroke-linejoin="round"/>
<path d="M218.04 42.5996C217.91 40.0896 216.79 38.9696 214.28 38.8496" stroke="#8E949A" stroke-width="1.5" stroke-linecap="round" stroke-linejoin="round"/>
<path d="M203.639 42.5996C203.769 40.0896 204.889 38.9696 207.399 38.8496" stroke="#8E949A" stroke-width="1.5" stroke-linecap="round" stroke-linejoin="round"/>
<path d="M203.639 49.4502C203.769 51.9602 204.889 53.0802 207.399 53.2102" stroke="#8E949A" stroke-width="1.5" stroke-linecap="round" stroke-linejoin="round"/>
<path d="M218.04 49.4502C217.91 51.9602 216.79 53.0802 214.28 53.2102" stroke="#8E949A" stroke-width="1.5" stroke-linecap="round" stroke-linejoin="round"/>
<path d="M127.635 42.0186H119.855" stroke="#8E949A" stroke-width="1.5" stroke-linecap="round" stroke-linejoin="round"/>
<path d="M121.344 42.0186V46.1786C121.344 48.2686 121.554 48.6486 123.794 48.6286C126.034 48.6086 126.254 48.2385 126.254 46.1485V42.0186" stroke="#8E949A" stroke-width="1.5" stroke-linecap="round" stroke-linejoin="round"/>
<path d="M123.084 57.0685C123.275 57.2193 123.511 57.3014 123.754 57.3014C123.998 57.3014 124.234 57.2193 124.424 57.0685C126.524 55.4785 132.684 50.2785 132.654 44.2085C132.694 43.0139 132.494 41.8236 132.064 40.7082C131.635 39.5928 130.985 38.5753 130.154 37.7161C129.323 36.8569 128.328 36.1737 127.228 35.7071C126.128 35.2405 124.945 35 123.749 35C122.554 35 121.371 35.2405 120.271 35.7071C119.17 36.1737 118.175 36.8569 117.344 37.7161C116.514 38.5753 115.864 39.5928 115.435 40.7082C115.005 41.8236 114.804 43.0139 114.844 44.2085C114.844 50.2085 121.004 55.4785 123.084 57.0785" stroke="#8E949A" stroke-width="1.5" stroke-linecap="round" stroke-linejoin="round"/>
<path d="M55.8393 42.7316L46.5177 35.9452C45.741 35.381 44.8057 35.0771 43.8457 35.0771C42.8858 35.0771 41.9505 35.381 41.1738 35.9452L31.8193 42.7316" stroke="#8E949A" stroke-width="1.5" stroke-linecap="round" stroke-linejoin="round"/>
<path d="M47.3045 56.7415V52.3703C47.3045 49.4088 47.0094 48.8733 43.8293 48.8952C40.835 48.8952 40.3433 49.4634 40.3433 52.4249V56.7962" stroke="#8E949A" stroke-width="1.5" stroke-linecap="round" stroke-linejoin="round"/>
<path d="M34.2993 40.918V49.3654C34.2993 55.6928 34.9113 56.8402 41.7304 56.7856L45.905 56.731C52.287 56.6763 53.3361 55.5179 53.3361 49.1906V40.918" stroke="#8E949A" stroke-width="1.5" stroke-linecap="round" stroke-linejoin="round"/>
<defs>
<filter id="filter0_d_37_3533" x="-63" y="-52" width="554" height="219" filterUnits="userSpaceOnUse" color-interpolation-filters="sRGB">
<feFlood flood-opacity="0" result="BackgroundImageFix"/>
<feColorMatrix in="SourceAlpha" type="matrix" values="0 0 0 0 0 0 0 0 0 0 0 0 0 0 0 0 0 0 127 0" result="hardAlpha"/>
<feMorphology radius="19" operator="dilate" in="SourceAlpha" result="effect1_dropShadow_37_3533"/>
<feOffset dy="11"/>
<feGaussianBlur stdDeviation="22"/>
<feComposite in2="hardAlpha" operator="out"/>
<feColorMatrix type="matrix" values="0 0 0 0 0 0 0 0 0 0 0 0 0 0 0 0 0 0 0.1 0"/>
<feBlend mode="normal" in2="BackgroundImageFix" result="effect1_dropShadow_37_3533"/>
<feBlend mode="normal" in="SourceGraphic" in2="effect1_dropShadow_37_3533" result="shape"/>
</filter>
</defs>
</svg>
