<svg width="167" height="79" viewBox="0 0 167 79" fill="none" xmlns="http://www.w3.org/2000/svg">
<path d="M12.5001 16.5001C13.3242 16.5001 14.1298 16.2557 14.815 15.7979C15.5002 15.34 16.0343 14.6893 16.3497 13.9279C16.665 13.1666 16.7476 12.3288 16.5868 11.5205C16.426 10.7123 16.0292 9.96982 15.4464 9.38709C14.8637 8.80437 14.1213 8.40753 13.313 8.24676C12.5048 8.08599 11.667 8.1685 10.9056 8.48387C10.1443 8.79923 9.49351 9.33329 9.03566 10.0185C8.57782 10.7037 8.33345 11.5093 8.33345 12.3334C8.33345 13.4385 8.77244 14.4983 9.55385 15.2797C10.3353 16.0611 11.3951 16.5001 12.5001 16.5001ZM12.5001 10.25C12.9122 10.25 13.315 10.3722 13.6576 10.6012C14.0002 10.8301 14.2672 11.1554 14.4249 11.5361C14.5826 11.9168 14.6238 12.3357 14.5435 12.7398C14.4631 13.144 14.2647 13.5152 13.9733 13.8065C13.6819 14.0979 13.3107 14.2963 12.9066 14.3767C12.5025 14.4571 12.0836 14.4158 11.7029 14.2582C11.3222 14.1005 10.9968 13.8334 10.7679 13.4908C10.539 13.1482 10.4168 12.7454 10.4168 12.3334C10.4168 11.7809 10.6363 11.2509 11.027 10.8602C11.4177 10.4695 11.9476 10.25 12.5001 10.25ZM21.521 13.5386L20.7721 13.2896C20.9069 12.1229 20.7935 10.9408 20.4394 9.82096C20.0853 8.7011 19.4984 7.66874 18.7174 6.79157C17.9363 5.91441 16.9786 5.21226 15.9072 4.73116C14.8357 4.25007 13.6747 4.0009 12.5001 4C11.3103 4.00046 10.1344 4.25593 9.0516 4.74921C7.96882 5.24248 7.00434 5.9621 6.22315 6.85958C5.44195 7.75705 4.86219 8.81154 4.52291 9.95199C4.18364 11.0924 4.09274 12.2924 4.25634 13.4709C3.25949 13.6568 2.3377 14.1271 1.60215 14.8251C1.09295 15.3092 0.688156 15.8923 0.412643 16.5387C0.137129 17.185 -0.00327646 17.8808 5.80286e-05 18.5834V22.8283C0.00224721 23.9547 0.368594 25.0501 1.04443 25.9513C1.72027 26.8524 2.66936 27.5108 3.75008 27.8283L6.73969 28.7658C7.24184 28.9221 7.76483 29.0011 8.29074 29.0002C8.76782 28.9996 9.24262 28.9344 9.70221 28.8064L15.7231 27.0252C16.2595 26.8788 16.8253 26.8788 17.3616 27.0252L19.8481 27.8585C20.4609 28.0077 21.0996 28.0158 21.716 27.8822C22.3324 27.7486 22.9104 27.4768 23.4065 27.0874C23.9026 26.6979 24.3038 26.2009 24.5799 25.6338C24.8559 25.0667 24.9997 24.4444 25.0002 23.8137V18.4501C24.9979 17.3724 24.6622 16.3218 24.0394 15.4423C23.4165 14.5628 22.5369 13.8975 21.521 13.5376V13.5386ZM8.08136 7.91878C8.6608 7.33699 9.34943 6.87536 10.1077 6.56036C10.866 6.24537 11.679 6.08322 12.5001 6.08322C13.3213 6.08322 14.1343 6.24537 14.8926 6.56036C15.6509 6.87536 16.3395 7.33699 16.9189 7.91878C18.0879 9.09498 18.7449 10.6853 18.747 12.3435C18.7492 14.0018 18.0963 15.5938 16.9304 16.773L13.2293 20.372C13.0361 20.5614 12.7764 20.6675 12.5059 20.6675C12.2353 20.6675 11.9756 20.5614 11.7824 20.372L8.08136 16.7886C6.90997 15.6099 6.25251 14.0155 6.25251 12.3537C6.25251 10.6919 6.90997 9.09755 8.08136 7.91878ZM22.9169 23.8137C22.9175 24.1292 22.8462 24.4407 22.7083 24.7244C22.5703 25.0082 22.3695 25.2568 22.121 25.4512C21.8863 25.64 21.6128 25.7747 21.32 25.8458C21.0273 25.9169 20.7225 25.9227 20.4273 25.8627L17.9846 25.0418C17.0606 24.7764 16.0814 24.7706 15.1543 25.0251L9.12929 26.8043C8.5504 26.964 7.93777 26.9535 7.36469 26.7741L4.35009 25.8366C3.69764 25.6479 3.12399 25.2527 2.71528 24.7103C2.30657 24.1678 2.08485 23.5074 2.08341 22.8283V18.5834C2.08106 18.1624 2.16487 17.7453 2.32968 17.3578C2.49449 16.9703 2.73681 16.6207 3.04175 16.3303C3.5191 15.8754 4.12719 15.5817 4.7803 15.4907C5.2002 16.5315 5.8255 17.4771 6.61885 18.2709L10.3345 21.8678C10.9152 22.4365 11.6957 22.755 12.5085 22.755C13.3213 22.755 14.1017 22.4365 14.6825 21.8678L18.3939 18.2605C19.2249 17.4262 19.8687 16.4244 20.2825 15.322L20.8419 15.5074C21.4485 15.7247 21.9733 16.124 22.3447 16.6506C22.716 17.1773 22.9159 17.8057 22.9169 18.4501V23.8137Z" fill="#83898F"/>
<path d="M147 14.5C147.989 14.5 148.956 14.2165 149.778 13.6854C150.6 13.1543 151.241 12.3995 151.619 11.5163C151.998 10.6331 152.097 9.6613 151.904 8.72373C151.711 7.78615 151.235 6.92493 150.536 6.24898C149.836 5.57303 148.945 5.1127 147.975 4.9262C147.006 4.73971 146 4.83542 145.087 5.20125C144.173 5.56707 143.392 6.18657 142.843 6.98141C142.293 7.77625 142 8.71072 142 9.66666C142 10.9485 142.527 12.1779 143.465 13.0843C144.402 13.9908 145.674 14.5 147 14.5ZM147 7.25C147.494 7.25 147.978 7.39173 148.389 7.65728C148.8 7.92283 149.121 8.30026 149.31 8.74185C149.499 9.18343 149.548 9.66934 149.452 10.1381C149.356 10.6069 149.117 11.0375 148.768 11.3755C148.418 11.7135 147.973 11.9436 147.488 12.0369C147.003 12.1301 146.5 12.0823 146.043 11.8994C145.587 11.7165 145.196 11.4067 144.921 11.0093C144.647 10.6119 144.5 10.1446 144.5 9.66666C144.5 9.02572 144.763 8.41103 145.232 7.95782C145.701 7.50461 146.337 7.25 147 7.25ZM157.825 11.0647L156.926 10.7759C157.088 9.42249 156.952 8.0513 156.527 6.75227C156.102 5.45324 155.398 4.2557 154.461 3.2382C153.523 2.2207 152.374 1.40621 151.088 0.848145C149.803 0.290081 148.409 0.00104821 147 0C145.572 0.000532838 144.161 0.29688 142.862 0.869075C141.562 1.44127 140.405 2.27602 139.468 3.31709C138.53 4.35815 137.835 5.58135 137.427 6.90426C137.02 8.22717 136.911 9.61906 137.108 10.9862C135.911 11.2018 134.805 11.7473 133.923 12.557C133.312 13.1186 132.826 13.795 132.495 14.5447C132.165 15.2945 131.996 16.1017 132 16.9167V21.8406C132.003 23.1472 132.442 24.418 133.253 25.4633C134.064 26.5086 135.203 27.2723 136.5 27.6406L140.088 28.7281C140.69 28.9094 141.318 29.0011 141.949 29C142.521 28.9993 143.091 28.9237 143.643 28.7752L150.868 26.709C151.511 26.5392 152.19 26.5392 152.834 26.709L155.818 27.6757C156.553 27.8487 157.319 27.8581 158.059 27.7031C158.799 27.5482 159.492 27.2329 160.088 26.7812C160.683 26.3294 161.164 25.7528 161.496 25.095C161.827 24.4372 161.999 23.7153 162 22.9837V16.762C161.997 15.5119 161.594 14.2932 160.847 13.273C160.1 12.2528 159.044 11.481 157.825 11.0635V11.0647ZM141.698 4.54575C142.393 3.87088 143.219 3.33539 144.129 2.97C145.039 2.60461 146.015 2.41652 147 2.41652C147.985 2.41652 148.961 2.60461 149.871 2.97C150.781 3.33539 151.607 3.87088 152.303 4.54575C153.705 5.91013 154.494 7.75486 154.496 9.67843C154.499 11.602 153.715 13.4487 152.316 14.8166L147.875 18.9914C147.643 19.2111 147.332 19.3341 147.007 19.3341C146.682 19.3341 146.371 19.2111 146.139 18.9914L141.698 14.8347C140.292 13.4673 139.503 11.6179 139.503 9.69023C139.503 7.76252 140.292 5.91311 141.698 4.54575ZM159.5 22.9837C159.501 23.3497 159.415 23.711 159.25 24.0402C159.084 24.3693 158.843 24.6577 158.545 24.8832C158.263 25.1022 157.935 25.2584 157.584 25.3409C157.233 25.4234 156.867 25.4301 156.513 25.3605L153.581 24.4083C152.473 24.1004 151.297 24.0937 150.185 24.389L142.955 26.4528C142.26 26.6381 141.525 26.6259 140.838 26.4178L137.22 25.3303C136.437 25.1114 135.749 24.653 135.258 24.0237C134.768 23.3945 134.502 22.6285 134.5 21.8406V16.9167C134.497 16.4282 134.598 15.9444 134.796 15.4949C134.993 15.0455 135.284 14.6399 135.65 14.303C136.223 13.7753 136.953 13.4347 137.736 13.3291C138.24 14.5365 138.991 15.6333 139.943 16.5542L144.401 20.7265C145.098 21.3862 146.035 21.7556 147.01 21.7556C147.985 21.7556 148.922 21.3862 149.619 20.7265L154.073 16.5421C155.07 15.5742 155.842 14.4122 156.339 13.1334L157.01 13.3485C157.738 13.6006 158.368 14.0637 158.813 14.6746C159.259 15.2855 159.499 16.0145 159.5 16.762V22.9837Z" fill="#83898F"/>
<path d="M15 64C15.9889 64 16.9556 63.7068 17.7779 63.1573C18.6001 62.6079 19.241 61.827 19.6194 60.9134C19.9979 59.9998 20.0969 58.9945 19.9039 58.0245C19.711 57.0546 19.2348 56.1637 18.5356 55.4645C17.8363 54.7652 16.9454 54.289 15.9755 54.0961C15.0056 53.9031 14.0002 54.0022 13.0866 54.3806C12.173 54.759 11.3921 55.3999 10.8427 56.2221C10.2933 57.0444 10 58.0111 10 59C10 60.3261 10.5268 61.5978 11.4645 62.5355C12.4022 63.4732 13.674 64 15 64ZM15 56.5C15.4945 56.5 15.9778 56.6466 16.389 56.9213C16.8001 57.196 17.1205 57.5865 17.3097 58.0433C17.4989 58.5001 17.5485 59.0028 17.452 59.4877C17.3555 59.9727 17.1174 60.4181 16.7678 60.7678C16.4182 61.1174 15.9727 61.3555 15.4878 61.452C15.0028 61.5484 14.5001 61.4989 14.0433 61.3097C13.5865 61.1205 13.1961 60.8 12.9214 60.3889C12.6467 59.9778 12.5 59.4945 12.5 59C12.5 58.337 12.7634 57.7011 13.2323 57.2322C13.7011 56.7634 14.337 56.5 15 56.5ZM25.825 60.4462L24.9263 60.1475C25.088 58.7474 24.9519 57.3289 24.527 55.9851C24.1021 54.6413 23.3979 53.4025 22.4606 52.3499C21.5234 51.2973 20.3742 50.4547 19.0884 49.8774C17.8027 49.3001 16.4094 49.0011 15 49C13.5722 49.0006 12.1611 49.3071 10.8618 49.899C9.56249 50.491 8.40513 51.3545 7.46771 52.4315C6.53028 53.5084 5.83457 54.7738 5.42744 56.1423C5.02032 57.5109 4.91124 58.9508 5.10756 60.365C3.91135 60.588 2.80522 61.1524 1.92257 61.99C1.31153 62.5709 0.82578 63.2707 0.495167 64.0463C0.164553 64.8219 -0.00393171 65.6569 6.96336e-05 66.5V71.5937C0.00269662 72.9454 0.442309 74.26 1.2533 75.3413C2.0643 76.4226 3.2032 77.2128 4.50006 77.5937L8.08755 78.7187C8.69013 78.9063 9.31771 79.0011 9.9488 79C10.5213 78.9993 11.091 78.921 11.6425 78.7675L18.8675 76.63C19.5112 76.4543 20.1901 76.4543 20.8338 76.63L23.8175 77.63C24.5529 77.809 25.3193 77.8187 26.059 77.6584C26.7986 77.4981 27.4923 77.172 28.0876 76.7046C28.6829 76.2373 29.1643 75.6409 29.4956 74.9604C29.8269 74.2799 29.9993 73.5331 30 72.7762V66.34C29.9972 65.0468 29.5944 63.786 28.847 62.7307C28.0995 61.6753 27.044 60.8769 25.825 60.445V60.4462ZM9.69755 53.7025C10.3929 53.0044 11.2192 52.4504 12.1291 52.0724C13.0391 51.6944 14.0147 51.4998 15 51.4998C15.9854 51.4998 16.961 51.6944 17.8709 52.0724C18.7809 52.4504 19.6072 53.0044 20.3025 53.7025C21.7052 55.1139 22.4937 57.0223 22.4962 59.0122C22.4988 61.0021 21.7153 62.9124 20.3163 64.3275L15.875 68.6462C15.6432 68.8735 15.3315 69.0008 15.0069 69.0008C14.6823 69.0008 14.3706 68.8735 14.1388 68.6462L9.69755 64.3462C8.29189 62.9317 7.50294 61.0185 7.50294 59.0244C7.50294 57.0302 8.29189 55.117 9.69755 53.7025ZM27.5 72.7762C27.5008 73.1548 27.4151 73.5286 27.2497 73.8691C27.0842 74.2097 26.8432 74.5079 26.545 74.7412C26.2633 74.9678 25.9351 75.1294 25.5838 75.2148C25.2325 75.3001 24.8668 75.307 24.5125 75.235L21.5813 74.25C20.4725 73.9315 19.2974 73.9245 18.185 74.23L10.955 76.365C10.2604 76.5566 9.52524 76.544 8.83755 76.3287L5.22006 75.2037C4.43712 74.9773 3.74876 74.5031 3.25831 73.8521C2.76786 73.2012 2.5018 72.4088 2.50006 71.5937V66.5C2.49725 65.9947 2.59783 65.4942 2.79559 65.0293C2.99336 64.5643 3.28414 64.1447 3.65006 63.7962C4.22288 63.2503 4.95258 62.8979 5.73631 62.7887C6.24019 64.0377 6.99053 65.1724 7.94255 66.125L12.4013 70.4412C13.0982 71.1236 14.0347 71.5058 15.01 71.5058C15.9854 71.5058 16.9219 71.1236 17.6188 70.4412L22.0725 66.1125C23.0697 65.1113 23.8422 63.9092 24.3388 62.5862L25.01 62.8087C25.738 63.0696 26.3677 63.5487 26.8134 64.1807C27.259 64.8126 27.4988 65.5667 27.5 66.34V72.7762Z" fill="#83898F"/>
</svg>
