<svg width="30" height="30" viewBox="0 0 30 30" fill="none" xmlns="http://www.w3.org/2000/svg">
<rect width="29.9997" height="29.9997" rx="5" fill="#FF6363" fill-opacity="0.15"/>
<path d="M6.73081 10.9049H23.0285" stroke="#FF6363" stroke-width="1.2" stroke-linecap="round" stroke-linejoin="round"/>
<path d="M11.6492 19.1897H10.03C9.11027 19.1897 8.22807 18.8248 7.57699 18.1752C6.92592 17.5255 6.55914 16.6441 6.55713 15.7243V10.9047C6.55914 9.9849 6.92592 9.10349 7.57699 8.45383C8.22807 7.80417 9.11027 7.43932 10.03 7.43932H19.7753C20.2307 7.43832 20.6818 7.52728 21.1026 7.70107C21.5235 7.87487 21.9059 8.13009 22.2279 8.45207C22.5499 8.77406 22.8051 9.15646 22.9789 9.57734C23.1527 9.99823 23.2417 10.4493 23.2407 10.9047V15.7243C23.2417 16.1797 23.1527 16.6308 22.9789 17.0516C22.8051 17.4725 22.5499 17.8549 22.2279 18.1769C21.9059 18.4989 21.5235 18.7541 21.1026 18.9279C20.6818 19.1017 20.2307 19.1907 19.7753 19.1897H18.1183" stroke="#FF6363" stroke-width="1.2" stroke-linecap="round" stroke-linejoin="round"/>
<path d="M16.1508 17.1087H13.6086C12.5263 17.1087 11.6489 17.9861 11.6489 19.0684V20.7405C11.6489 21.8228 12.5263 22.7002 13.6086 22.7002H16.1508C17.2331 22.7002 18.1105 21.8228 18.1105 20.7405V19.0684C18.1105 17.9861 17.2331 17.1087 16.1508 17.1087Z" stroke="#FF6363" stroke-width="1.2" stroke-linecap="round" stroke-linejoin="round"/>
<path d="M17.021 17.1092V16.4509C17.0383 16.1595 16.9959 15.8677 16.8963 15.5933C16.7967 15.3189 16.6421 15.0677 16.4419 14.8553C16.2417 14.6428 16.0002 14.4736 15.7322 14.3578C15.4642 14.2421 15.1754 14.1825 14.8835 14.1825C14.5916 14.1825 14.3028 14.2421 14.0348 14.3578C13.7668 14.4736 13.5253 14.6428 13.3251 14.8553C13.1249 15.0677 12.9703 15.3189 12.8707 15.5933C12.7711 15.8677 12.7287 16.1595 12.746 16.4509V17.1092" stroke="#FF6363" stroke-width="1.2" stroke-linecap="round" stroke-linejoin="round"/>
</svg>
