<svg width="28" height="25" viewBox="0 0 28 25" fill="none" xmlns="http://www.w3.org/2000/svg">
<path opacity="0.3" d="M20.2227 2.33336C20.2227 1.04468 19.178 0 17.8894 0C16.6007 0 15.556 1.04468 15.556 2.33336V22.5559C15.556 23.8445 16.6007 24.8892 17.8894 24.8892C19.178 24.8892 20.2227 23.8445 20.2227 22.5559V2.33336Z" fill="#FFCACA"/>
<path d="M12.4457 10.1114C12.4457 8.82268 11.401 7.778 10.1124 7.778C8.82368 7.778 7.779 8.82268 7.779 10.1114V22.556C7.779 23.8447 8.82368 24.8893 10.1124 24.8893C11.401 24.8893 12.4457 23.8447 12.4457 22.556V10.1114Z" fill="#FFCACA"/>
<path d="M27.9997 13.2224C27.9997 11.9337 26.955 10.889 25.6664 10.889C24.3777 10.889 23.333 11.9337 23.333 13.2224V22.5558C23.333 23.8445 24.3777 24.8892 25.6664 24.8892C26.955 24.8892 27.9997 23.8445 27.9997 22.5558V13.2224Z" fill="#FFCACA"/>
<path d="M4.66673 16.3334C4.66673 15.0447 3.62205 14 2.33336 14C1.04468 14 0 15.0447 0 16.3334V22.5557C0 23.8444 1.04468 24.889 2.33336 24.889C3.62205 24.889 4.66673 23.8444 4.66673 22.5557V16.3334Z" fill="#FFCACA"/>
</svg>
