<svg width="14" height="15" viewBox="0 0 14 15" fill="none" xmlns="http://www.w3.org/2000/svg">
<path d="M7.99904 6.00026C7.99904 5.44799 7.55134 5.00029 6.99908 5.00029C6.44681 5.00029 5.99912 5.44799 5.99912 6.00026V13.9999C5.99912 14.5522 6.44681 14.9999 6.99908 14.9999C7.55134 14.9999 7.99904 14.5522 7.99904 13.9999V6.00026Z" fill="#FF6363"/>
<path d="M1.70704 7.70681C1.31653 8.09732 0.683391 8.09732 0.292882 7.70681C-0.0976273 7.3163 -0.0976273 6.68316 0.292882 6.29265L6.29265 0.292883C6.67121 -0.085681 7.28078 -0.0989262 7.67543 0.262837L13.6752 5.76262C14.0823 6.1358 14.1098 6.76834 13.7366 7.17545C13.3634 7.58255 12.7309 7.61005 12.3238 7.23687L7.0298 2.38405L1.70704 7.70681Z" fill="#FF6363"/>
</svg>
