<svg width="36" height="43" viewBox="0 0 36 43" fill="none" xmlns="http://www.w3.org/2000/svg">
<path d="M7.8595 11.5941V34.0932C7.8595 39.4139 10.1252 40.6669 12.8978 36.8716C13.1632 36.4673 13.5041 36.146 13.892 35.9346C14.2799 35.7232 14.7037 35.6278 15.128 35.6562C15.5524 35.6846 15.965 35.8361 16.3316 36.0981C16.6981 36.36 17.008 36.7248 17.2355 37.1622L18.8155 39.8679C19.0477 40.3541 19.3804 40.7575 19.7807 41.038C20.1809 41.3184 20.6345 41.466 21.0962 41.466C21.5578 41.466 22.0115 41.3184 22.4117 41.038C22.8119 40.7575 23.1447 40.3541 23.3768 39.8679L24.8674 37.1803C25.0931 36.7383 25.4026 36.3688 25.7699 36.1028C26.1371 35.8369 26.5515 35.6823 26.9781 35.652C27.4046 35.6218 27.8309 35.7168 28.221 35.929C28.6112 36.1412 28.9538 36.4645 29.22 36.8716C31.9925 40.6669 34.2583 39.4139 34.2583 34.0932V11.5941C34.2583 3.54955 32.7677 1.5339 26.9096 1.5339H4.05843" stroke="white" stroke-width="3" stroke-linecap="round" stroke-linejoin="round"/>
<path d="M4.71426 1.5339C2.19512 1.5339 1.55416 3.54955 1.55416 11.5941V17.0418C1.45242 18.2352 1.73643 19.43 2.34591 20.3725C2.95539 21.315 3.84238 21.9311 4.81861 22.09H7.79984V11.6485C7.85946 3.54955 7.2334 1.5339 4.71426 1.5339Z" stroke="white" stroke-width="3" stroke-linecap="round" stroke-linejoin="round"/>
<path d="M21.111 14.5361C21.111 14.5361 16.6392 18.64 16.6392 23.3796C16.8468 24.6381 17.4057 25.7702 18.2209 26.5835C19.0361 27.3969 20.0573 27.8413 21.111 27.8413C22.1647 27.8413 23.1859 27.3969 24.0011 26.5835C24.8163 25.7702 25.3752 24.6381 25.5829 23.3796C25.5978 18.64 21.111 14.5361 21.111 14.5361Z" stroke="white" stroke-width="3" stroke-linecap="round" stroke-linejoin="round"/>
</svg>
