<svg width="22" height="25" viewBox="0 0 22 25" fill="none" xmlns="http://www.w3.org/2000/svg">
<path d="M10.3839 13.7973C9.9017 13.7973 9.4392 13.5981 9.0982 13.2437C8.7572 12.8892 8.56562 12.4084 8.56562 11.9071C8.5629 11.6571 8.60795 11.409 8.69811 11.1772C8.78827 10.9454 8.92178 10.7345 9.0909 10.5567C9.26001 10.3789 9.46137 10.2378 9.68333 10.1415C9.90529 10.0451 10.1434 9.99554 10.3839 9.99556H12.4385" stroke="#13C999" stroke-width="1.5" stroke-linecap="round" stroke-linejoin="round"/>
<path d="M10.3847 13.797H11.3092C11.7915 13.797 12.254 13.9962 12.595 14.3506C12.936 14.7051 13.1275 15.1859 13.1275 15.6872C13.1275 16.1885 12.936 16.6693 12.595 17.0238C12.254 17.3782 11.7915 17.5774 11.3092 17.5774H9.20328" stroke="#13C999" stroke-width="1.5" stroke-linecap="round" stroke-linejoin="round"/>
<path d="M10.8263 8.78863V10.0167" stroke="#13C999" stroke-width="1.5" stroke-linecap="round" stroke-linejoin="round"/>
<path d="M10.8263 17.5669V18.795" stroke="#13C999" stroke-width="1.5" stroke-linecap="round" stroke-linejoin="round"/>
<path d="M20.2151 9.99584C20.6666 11.2008 20.8966 12.4831 20.8931 13.7762C20.8931 15.8461 20.3027 17.8695 19.1965 19.5905C18.0903 21.3115 16.5179 22.6529 14.6783 23.445C12.8388 24.2371 10.8145 24.4444 8.86161 24.0405C6.90871 23.6367 5.11486 22.64 3.7069 21.1764C2.29894 19.7128 1.34012 17.848 0.951666 15.8179C0.563211 13.7878 0.762583 11.6836 1.52456 9.77126C2.28655 7.85896 3.57692 6.22449 5.23251 5.07453C6.8881 3.92458 8.83453 3.31079 10.8257 3.31079H16.445" stroke="#13C999" stroke-width="1.5" stroke-linecap="round" stroke-linejoin="round"/>
<path d="M14.0014 5.89482L16.4669 3.33185L14.0014 0.758219" stroke="#13C999" stroke-width="1.5" stroke-linecap="round" stroke-linejoin="round"/>
</svg>
