<svg width="23" height="26" viewBox="0 0 23 26" fill="none" xmlns="http://www.w3.org/2000/svg">
<path d="M3.43507 10.9301V20.9195" stroke="#FF6363" stroke-width="1.5" stroke-linecap="round" stroke-linejoin="round"/>
<path d="M8.81136 20.8865V10.9301" stroke="#FF6363" stroke-width="1.5" stroke-linecap="round" stroke-linejoin="round"/>
<path d="M14.1881 10.9301V20.8865" stroke="#FF6363" stroke-width="1.5" stroke-linecap="round" stroke-linejoin="round"/>
<path d="M19.554 20.9195V10.9301" stroke="#FF6363" stroke-width="1.5" stroke-linecap="round" stroke-linejoin="round"/>
<path d="M21.577 6.85431L14.5074 1.74398C13.6162 1.10448 12.5575 0.761806 11.473 0.761806C10.3884 0.761806 9.32971 1.10448 8.43858 1.74398L1.34768 6.85431C1.1618 6.99899 1.01179 7.18726 0.909981 7.40363C0.808177 7.61999 0.757492 7.85827 0.762094 8.09886V9.39847C0.760689 9.59899 0.797656 9.79781 0.870865 9.98348C0.944074 10.1692 1.05208 10.338 1.18865 10.4803C1.32523 10.6226 1.48768 10.7356 1.66664 10.8126C1.8456 10.8897 2.03753 10.9294 2.23138 10.9294H20.7678C20.9617 10.9294 21.1536 10.8897 21.3326 10.8126C21.5115 10.7356 21.674 10.6226 21.8105 10.4803C21.9471 10.338 22.0551 10.1692 22.1283 9.98348C22.2015 9.79781 22.2385 9.59899 22.2371 9.39847V8.09886C22.2333 7.8515 22.1712 7.60885 22.0561 7.39197C21.9411 7.17508 21.7766 6.99052 21.577 6.85431Z" stroke="#FF6363" stroke-width="1.5" stroke-linecap="round" stroke-linejoin="round"/>
<path d="M2.72185 24.983H20.2787C22.2378 24.983 22.2378 23.9697 22.2378 22.9564C22.2378 20.9189 21.2583 20.9189 20.2787 20.9189H2.72185C1.74232 20.9189 0.762798 20.9189 0.762798 22.9564C0.762798 24.983 1.74232 24.983 2.72185 24.983Z" stroke="#FF6363" stroke-width="1.5" stroke-linecap="round" stroke-linejoin="round"/>
</svg>
