<svg width="26" height="26" viewBox="0 0 26 26" fill="none" xmlns="http://www.w3.org/2000/svg">
<path d="M12.4645 13.0002C11.8724 13.0002 11.3046 12.765 10.886 12.3464C10.4674 11.9278 10.2322 11.36 10.2322 10.7679C10.2322 10.1759 10.4674 9.60811 10.886 9.18948C11.3046 8.77084 11.8724 8.53565 12.4645 8.53565H15.0316" stroke="#FF6363" stroke-width="1.5" stroke-linecap="round" stroke-linejoin="round"/>
<path d="M12.4643 13H13.5804C14.1725 13 14.7403 13.2352 15.1589 13.6538C15.5775 14.0725 15.8127 14.6402 15.8127 15.2323C15.8127 15.8243 15.5775 16.3921 15.1589 16.8108C14.7403 17.2294 14.1725 17.4646 13.5804 17.4646H11.0133" stroke="#FF6363" stroke-width="1.5" stroke-linecap="round" stroke-linejoin="round"/>
<path d="M13.001 7.15125V8.57991" stroke="#FF6363" stroke-width="1.5" stroke-linecap="round" stroke-linejoin="round"/>
<path d="M13.001 17.4199V18.8486" stroke="#FF6363" stroke-width="1.5" stroke-linecap="round" stroke-linejoin="round"/>
<path d="M19.8651 13H20.7803" stroke="#FF6363" stroke-width="1.5" stroke-linecap="round" stroke-linejoin="round"/>
<path d="M5.23196 13H6.14719" stroke="#FF6363" stroke-width="1.5" stroke-linecap="round" stroke-linejoin="round"/>
<path d="M13 25.233C19.7561 25.233 25.233 19.7561 25.233 13C25.233 6.24398 19.7561 0.767115 13 0.767115C6.24397 0.767115 0.767115 6.24398 0.767115 13C0.767115 19.7561 6.24397 25.233 13 25.233Z" stroke="#FF6363" stroke-width="1.5" stroke-linecap="round" stroke-linejoin="round"/>
<path d="M12.4645 13.0002C11.8724 13.0002 11.3046 12.765 10.886 12.3464C10.4674 11.9278 10.2322 11.36 10.2322 10.7679C10.2322 10.1759 10.4674 9.60811 10.886 9.18948C11.3046 8.77084 11.8724 8.53565 12.4645 8.53565H15.0316" stroke="#FF6363" stroke-width="1.5" stroke-linecap="round" stroke-linejoin="round"/>
<path d="M12.4643 13H13.5804C14.1725 13 14.7403 13.2352 15.1589 13.6538C15.5775 14.0725 15.8127 14.6402 15.8127 15.2323C15.8127 15.8243 15.5775 16.3921 15.1589 16.8108C14.7403 17.2294 14.1725 17.4646 13.5804 17.4646H11.0133" stroke="#FF6363" stroke-width="1.5" stroke-linecap="round" stroke-linejoin="round"/>
<path d="M13.001 7.15125V8.57991" stroke="#FF6363" stroke-width="1.5" stroke-linecap="round" stroke-linejoin="round"/>
<path d="M13.001 17.4199V18.8486" stroke="#FF6363" stroke-width="1.5" stroke-linecap="round" stroke-linejoin="round"/>
<path d="M19.8651 13H20.7803" stroke="#FF6363" stroke-width="1.5" stroke-linecap="round" stroke-linejoin="round"/>
<path d="M5.23196 13H6.14719" stroke="#FF6363" stroke-width="1.5" stroke-linecap="round" stroke-linejoin="round"/>
<path d="M13 25.233C19.7561 25.233 25.233 19.7561 25.233 13C25.233 6.24398 19.7561 0.767115 13 0.767115C6.24397 0.767115 0.767115 6.24398 0.767115 13C0.767115 19.7561 6.24397 25.233 13 25.233Z" stroke="#FF6363" stroke-width="1.5" stroke-linecap="round" stroke-linejoin="round"/>
</svg>
