<svg width="17" height="17" viewBox="0 0 17 17" fill="none" xmlns="http://www.w3.org/2000/svg">
<path d="M10.4922 6.50863L6.51069 10.4901C5.99923 9.97867 5.68448 9.27837 5.68448 8.49938C5.68448 6.9414 6.94346 5.68243 8.50144 5.68243C9.28043 5.68243 9.98073 5.99717 10.4922 6.50863Z" stroke="#8E949A" stroke-width="1.2" stroke-linecap="round" stroke-linejoin="round"/>
<path d="M13.0807 3.59733C11.7037 2.55868 10.13 1.99214 8.5012 1.99214C5.72359 1.99214 3.13482 3.6288 1.33292 6.46149C0.624747 7.57096 0.624747 9.43582 1.33292 10.5453C1.95454 11.521 2.67845 12.3629 3.4653 13.0396" stroke="#8E949A" stroke-width="1.2" stroke-linecap="round" stroke-linejoin="round"/>
<path d="M5.68448 14.4245C6.5815 14.8022 7.5336 15.0068 8.50144 15.0068C11.279 15.0068 13.8678 13.3701 15.6697 10.5374C16.3779 9.42796 16.3779 7.5631 15.6697 6.45363C15.4101 6.04447 15.1268 5.65891 14.8356 5.29695" stroke="#8E949A" stroke-width="1.2" stroke-linecap="round" stroke-linejoin="round"/>
<path d="M11.2627 9.05097C11.0581 10.1604 10.1532 11.0653 9.04378 11.2699" stroke="#8E949A" stroke-width="1.2" stroke-linecap="round" stroke-linejoin="round"/>
<path d="M6.50898 10.4901L0.631152 16.3679" stroke="#8E949A" stroke-width="1.2" stroke-linecap="round" stroke-linejoin="round"/>
<path d="M16.3689 0.631152L10.4911 6.50898" stroke="#8E949A" stroke-width="1.2" stroke-linecap="round" stroke-linejoin="round"/>
</svg>
