<svg width="22" height="15" viewBox="0 0 22 15" fill="none" xmlns="http://www.w3.org/2000/svg">
<path d="M8.36777 4.8797C8.45711 5.10007 8.66454 5.2964 8.95777 5.43813C9.25101 5.57987 9.61359 5.65904 9.98905 5.66333H11.8941C12.2937 5.65533 12.6719 5.55253 12.947 5.37721C13.222 5.20188 13.3716 4.96815 13.3634 4.72665C13.405 4.52927 13.3246 4.32955 13.1376 4.16576C12.9506 4.00196 12.6702 3.88559 12.35 3.83895L9.31013 3.19613C8.9911 3.14828 8.71202 3.03164 8.5254 2.86815C8.33878 2.70466 8.25749 2.5056 8.29683 2.30843C8.2928 2.18863 8.32786 2.06953 8.40004 1.95792C8.47221 1.84632 8.58008 1.74439 8.71747 1.65797C8.85485 1.57156 9.01907 1.50234 9.20074 1.45428C9.38241 1.40622 9.57798 1.38025 9.77626 1.37787H11.6813C12.0558 1.38077 12.4182 1.45868 12.7116 1.59938C13.005 1.74009 13.2129 1.93564 13.3026 2.15537" stroke="#F8C74E" stroke-width="1.5" stroke-linecap="round" stroke-linejoin="round"/>
<path d="M10.8295 0.765703V6.27559" stroke="#F8C74E" stroke-width="1.5" stroke-linecap="round" stroke-linejoin="round"/>
<path d="M3.63544 12.8386H2.18642C1.99596 12.8409 1.81119 12.7993 1.66964 12.7223L1.03125 12.3917C0.940487 12.343 0.869507 12.2823 0.823818 12.2144C0.778129 12.1464 0.758964 12.073 0.7678 11.9999L0.929917 10.5979C0.944566 10.4926 1.01591 10.3931 1.13302 10.3146C1.25014 10.2361 1.40658 10.183 1.57843 10.1633L2.68295 10.0408C3.53412 9.13475 12.0053 6.1288 15.2276 10.0408C16.7962 10.1624 18.3475 10.3548 19.8686 10.6163C20.2007 10.6844 20.489 10.8138 20.6927 10.9863C20.8963 11.1588 21.0051 11.3656 21.0035 11.5775V12.4835C21.0048 12.5299 20.9909 12.5759 20.9625 12.619C20.934 12.662 20.8917 12.7012 20.8379 12.7343C20.7842 12.7673 20.72 12.7936 20.6493 12.8115C20.5786 12.8294 20.5026 12.8386 20.4259 12.8386H18.6222" stroke="#F8C74E" stroke-width="1.5" stroke-linecap="round" stroke-linejoin="round"/>
<path d="M15.1774 10.0653H11.2762" stroke="#F8C74E" stroke-width="1.5" stroke-linecap="round" stroke-linejoin="round"/>
<path d="M16.3017 14.2342C17.5553 14.2342 18.5715 13.6202 18.5715 12.8629C18.5715 12.1055 17.5553 11.4915 16.3017 11.4915C15.0481 11.4915 14.0319 12.1055 14.0319 12.8629C14.0319 13.6202 15.0481 14.2342 16.3017 14.2342Z" stroke="#F8C74E" stroke-width="1.5" stroke-linecap="round" stroke-linejoin="round"/>
<path d="M5.89493 14.2342C7.1485 14.2342 8.16473 13.6202 8.16473 12.8629C8.16473 12.1055 7.1485 11.4915 5.89493 11.4915C4.64135 11.4915 3.62512 12.1055 3.62512 12.8629C3.62512 13.6202 4.64135 14.2342 5.89493 14.2342Z" stroke="#F8C74E" stroke-width="1.5" stroke-linecap="round" stroke-linejoin="round"/>
<path d="M8.1655 12.8629H14.0427" stroke="#F8C74E" stroke-width="1.5" stroke-linecap="round" stroke-linejoin="round"/>
</svg>
