<svg width="36" height="35" viewBox="0 0 36 35" fill="none" xmlns="http://www.w3.org/2000/svg">
<path d="M7.68582 9.56182V27.5918C7.68582 31.8555 9.90149 32.8596 12.6128 29.8182C12.8723 29.4942 13.2057 29.2368 13.585 29.0674C13.9644 28.898 14.3788 28.8215 14.7937 28.8443C15.2087 28.867 15.6122 28.9884 15.9707 29.1984C16.3291 29.4083 16.6322 29.7006 16.8546 30.0511L18.3997 32.2193C18.6267 32.609 18.9522 32.9323 19.3436 33.157C19.7349 33.3817 20.1785 33.5 20.63 33.5C21.0815 33.5 21.5251 33.3817 21.9164 33.157C22.3078 32.9323 22.6332 32.609 22.8602 32.2193L24.3179 30.0656C24.5386 29.7114 24.8412 29.4153 25.2004 29.2022C25.5596 28.9891 25.9648 28.8652 26.3819 28.8409C26.799 28.8167 27.2159 28.8928 27.5974 29.0629C27.9789 29.233 28.314 29.492 28.5743 29.8182C31.2856 32.8596 33.5013 31.8555 33.5013 27.5918V9.56182C33.5013 3.11527 32.0436 1.5 26.3149 1.5H3.96875" stroke="white" stroke-width="3" stroke-linecap="round" stroke-linejoin="round"/>
<path d="M4.61009 1.5C2.14662 1.5 1.51982 3.11527 1.51982 9.56182V13.9274C1.42033 14.8838 1.69806 15.8412 2.29407 16.5965C2.89009 17.3518 3.75747 17.8455 4.71213 17.9729H7.62748V9.60547C7.68579 3.11526 7.07356 1.5 4.61009 1.5Z" stroke="white" stroke-width="3" stroke-linecap="round" stroke-linejoin="round"/>
<path d="M20.6465 11.9189C20.6465 11.9189 16.2734 15.2077 16.2734 19.0058C16.4765 20.0143 17.023 20.9215 17.8202 21.5733C18.6174 22.2251 19.616 22.5812 20.6465 22.5812C21.6769 22.5812 22.6755 22.2251 23.4727 21.5733C24.2699 20.9215 24.8164 20.0143 25.0195 19.0058C25.0341 15.2077 20.6465 11.9189 20.6465 11.9189Z" stroke="white" stroke-width="3" stroke-linecap="round" stroke-linejoin="round"/>
</svg>
