<svg width="34" height="36" viewBox="0 0 34 36" fill="none" xmlns="http://www.w3.org/2000/svg">
<path d="M4.79781 15.2332V29.4586" stroke="#FF6363" stroke-width="1.5" stroke-linecap="round" stroke-linejoin="round"/>
<path d="M12.9298 29.4115V15.2332" stroke="#FF6363" stroke-width="1.5" stroke-linecap="round" stroke-linejoin="round"/>
<path d="M21.0623 15.2332V29.4115" stroke="#FF6363" stroke-width="1.5" stroke-linecap="round" stroke-linejoin="round"/>
<path d="M29.1795 29.4586V15.2332" stroke="#FF6363" stroke-width="1.5" stroke-linecap="round" stroke-linejoin="round"/>
<path d="M32.2397 9.42991L21.5459 2.15256C20.198 1.2419 18.5966 0.753906 16.956 0.753906C15.3155 0.753906 13.714 1.2419 12.3661 2.15256L1.64012 9.42991C1.35895 9.63594 1.13203 9.90405 0.978041 10.2122C0.824048 10.5203 0.74738 10.8596 0.754341 11.2022V13.0529C0.752216 13.3385 0.808133 13.6216 0.918873 13.886C1.02961 14.1504 1.19298 14.3909 1.39957 14.5935C1.60616 14.7961 1.85188 14.957 2.12259 15.0667C2.39329 15.1765 2.68362 15.233 2.97684 15.233H31.0157C31.3089 15.233 31.5993 15.1765 31.87 15.0667C32.1407 14.957 32.3864 14.7961 32.593 14.5935C32.7996 14.3909 32.9629 14.1504 33.0737 13.886C33.1844 13.6216 33.2403 13.3385 33.2382 13.0529V11.2022C33.2325 10.85 33.1385 10.5044 32.9645 10.1956C32.7905 9.8867 32.5417 9.62388 32.2397 9.42991Z" stroke="#FF6363" stroke-width="1.5" stroke-linecap="round" stroke-linejoin="round"/>
<path d="M3.71871 35.2457H30.2759C33.2392 35.2457 33.2393 33.8027 33.2393 32.3598C33.2393 29.4583 31.7576 29.4583 30.2759 29.4583H3.71871C2.23704 29.4583 0.755379 29.4583 0.755379 32.3598C0.755379 35.2457 2.23704 35.2457 3.71871 35.2457Z" stroke="#FF6363" stroke-width="1.5" stroke-linecap="round" stroke-linejoin="round"/>
</svg>
