<svg width="21" height="28" viewBox="0 0 21 28" fill="none" xmlns="http://www.w3.org/2000/svg">
<path d="M10.513 1.37711e-05C15.9005 0.00877715 20.4137 4.12464 20.9463 9.45764C21.1196 11.1869 20.6668 12.7488 19.9405 14.2668C18.8441 16.5579 17.4059 18.6358 15.7964 20.5832C14.2813 22.4158 12.6746 24.1733 11.0982 25.9552C10.6377 26.4751 10.3777 26.4615 9.89763 25.9601C7.25888 23.2006 4.75548 20.3271 2.68051 17.111C2.01839 16.0847 1.44292 14.9971 0.892779 13.9055C-0.357462 11.4255 -0.216275 8.9075 0.830462 6.40799C2.46142 2.51705 6.29783 -0.00680219 10.513 1.37711e-05ZM10.5013 2.33205C5.96288 2.34178 2.32121 6.00877 2.33387 10.555C2.34653 15.001 6.03104 18.667 10.4741 18.6553C15.0632 18.6436 18.6659 15 18.6581 10.3797C18.6503 5.98053 14.9424 2.32231 10.5013 2.33205Z" fill="#FFCACA"/>
<path d="M1.35139 26.6918C2.2102 26.4971 3.06025 26.2449 3.9288 26.1212C5.18878 25.9421 6.46141 25.8593 7.72821 25.7259C7.97066 25.7006 8.13619 25.7824 8.29393 25.9606C8.59092 26.2965 8.9025 26.6217 9.21896 26.9401C9.95508 27.6831 11.0125 27.6928 11.7535 26.9586C12.0982 26.6168 12.4166 26.2488 12.7623 25.908C12.8548 25.8174 13.0057 25.7278 13.1264 25.7337C15.0797 25.8262 17.0262 25.981 18.919 26.5166C19.105 26.5691 19.2871 26.6383 19.4692 26.7055C19.5227 26.7249 19.5705 26.7619 19.7116 26.8447C19.3397 26.9761 19.0466 27.1018 18.7428 27.1826C16.9979 27.6441 15.2102 27.8096 13.4156 27.909C10.8295 28.0531 8.24233 28.0424 5.66882 27.7512C4.44389 27.6129 3.23357 27.3384 2.02033 27.1095C1.79151 27.0667 1.57632 26.9499 1.35431 26.8671C1.35237 26.8087 1.35237 26.7502 1.35139 26.6918Z" fill="#83898F" fill-opacity="0.3"/>
<path d="M10.5045 15.1602C8.80437 15.1602 7.1033 15.1612 5.40321 15.1592C4.54147 15.1582 4.08286 14.6957 4.08286 13.8272C4.08188 11.7989 4.08188 9.77071 4.08286 7.74248C4.08383 6.87003 4.53661 6.41434 5.40418 6.41336C8.80534 6.41239 12.2055 6.41239 15.6067 6.41336C16.4451 6.41336 16.9085 6.88074 16.9095 7.72495C16.9115 9.76584 16.9115 11.8058 16.9095 13.8467C16.9085 14.6938 16.448 15.1573 15.6057 15.1582C13.9056 15.1621 12.2046 15.1602 10.5045 15.1602ZM15.7177 13.9791C15.7177 12.9976 15.7177 12.0472 15.7177 11.1076C12.2143 11.1076 8.73816 11.1076 5.26883 11.1076C5.26883 12.0794 5.26883 13.0209 5.26883 13.9791C8.75666 13.9791 12.224 13.9791 15.7177 13.9791ZM5.26397 8.1378C8.77321 8.1378 12.2503 8.1378 15.7274 8.1378C15.7274 7.94695 15.7274 7.78142 15.7274 7.59934C12.2338 7.59934 8.75666 7.59934 5.26397 7.59934C5.26397 7.78434 5.26397 7.94987 5.26397 8.1378Z" fill="#FFCACA"/>
<path d="M8.75896 13.4118C8.01797 13.4118 7.27697 13.4147 6.53598 13.4108C6.09976 13.4088 5.8427 13.1936 5.83491 12.8402C5.82712 12.476 6.09587 12.2472 6.54864 12.2462C8.01797 12.2443 9.48827 12.2433 10.9576 12.2462C11.3909 12.2472 11.6518 12.4653 11.6596 12.8158C11.6674 13.179 11.3967 13.4079 10.9449 13.4098C10.2166 13.4137 9.48729 13.4118 8.75896 13.4118Z" fill="#FFCACA"/>
<path d="M13.6877 13.4098C13.4083 13.4098 13.1288 13.4186 12.8504 13.4069C12.4833 13.3913 12.2398 13.143 12.2486 12.8119C12.2574 12.4955 12.493 12.2559 12.8435 12.2482C13.4141 12.2365 13.9847 12.2365 14.5553 12.2482C14.9214 12.2559 15.1658 12.5111 15.1571 12.8421C15.1483 13.1576 14.9107 13.3845 14.5612 13.4088C14.5368 13.4108 14.5125 13.4098 14.4881 13.4098C14.2223 13.4108 13.9555 13.4108 13.6877 13.4098Z" fill="#FFCACA"/>
</svg>
