<svg width="79" height="39" viewBox="0 0 79 39" fill="none" xmlns="http://www.w3.org/2000/svg">
<path d="M78.6324 15.0426C78.6346 17.0248 78.2451 18.9879 77.4861 20.8191C76.7271 22.6502 75.6138 24.3133 74.21 25.7128C72.8109 27.1136 71.149 28.2245 69.3197 28.9817C67.4904 29.7389 65.5298 30.1275 63.5499 30.1253H48.1362L39.271 39.0004L30.3961 30.1253H15.0426C11.053 30.1253 7.22681 28.5404 4.40579 25.7194C1.58476 22.8984 9.45045e-06 19.0722 9.45045e-06 15.0827C-0.00221237 13.1005 0.387351 11.1374 1.14632 9.30622C1.90529 7.47506 3.0186 5.81196 4.42244 4.41252C5.8227 3.0105 7.48627 1.89894 9.31739 1.14171C11.1485 0.384481 13.1112 -0.00351328 15.0928 2.39697e-05H63.6099C67.596 0.00533872 71.417 1.59253 74.2337 4.41298C77.0504 7.23343 78.6324 11.0565 78.6324 15.0426Z" fill="#FF6363"/>
</svg>
