<svg width="22" height="24" viewBox="0 0 22 24" fill="none" xmlns="http://www.w3.org/2000/svg">
<path d="M8.42666 7.62862C8.5167 7.99622 8.72575 8.32372 9.02128 8.56014C9.31681 8.79657 9.68223 8.92864 10.0606 8.9358H11.9805C12.3833 8.92245 12.7645 8.75097 13.0417 8.45851C13.3188 8.16605 13.4696 7.77616 13.4613 7.37331C13.5033 7.04406 13.4223 6.71091 13.2338 6.43767C13.0454 6.16444 12.7628 5.97033 12.4401 5.89253L9.3764 4.82023C9.05487 4.74041 8.77361 4.54583 8.58552 4.27311C8.39744 4.0004 8.31551 3.66834 8.35516 3.33944C8.3511 3.13961 8.38644 2.94093 8.45918 2.75476C8.53192 2.56859 8.64063 2.39856 8.77909 2.25441C8.91755 2.11026 9.08306 1.9948 9.26615 1.91463C9.44924 1.83445 9.64634 1.79114 9.84617 1.78716H11.7661C12.1436 1.792 12.5088 1.92196 12.8045 2.15667C13.1002 2.39139 13.3097 2.71759 13.4001 3.08413" stroke="#F8C74E" stroke-width="1.5" stroke-linecap="round" stroke-linejoin="round"/>
<path d="M10.9105 0.765926V9.95703" stroke="#F8C74E" stroke-width="1.5" stroke-linecap="round" stroke-linejoin="round"/>
<path d="M3.65812 20.9042H2.19776C2.00581 20.908 1.8196 20.8386 1.67694 20.7102L1.03355 20.1587C0.942077 20.0775 0.870542 19.9762 0.824496 19.8629C0.778449 19.7495 0.759134 19.6271 0.768039 19.5051L0.931425 17.1665C0.946188 16.9908 1.01809 16.8248 1.13612 16.6939C1.25415 16.5629 1.41182 16.4743 1.58501 16.4414L2.69817 16.2371C3.55601 14.7257 12.0935 9.71146 15.341 16.2371C16.9219 16.44 18.4853 16.7609 20.0183 17.1971C20.353 17.3106 20.6436 17.5265 20.8488 17.8143C21.0541 18.102 21.1637 18.447 21.1621 18.8005V20.3119C21.1634 20.3892 21.1494 20.466 21.1207 20.5378C21.0921 20.6096 21.0494 20.675 20.9952 20.7301C20.9411 20.7852 20.8764 20.829 20.8051 20.8589C20.7338 20.8888 20.6573 20.9042 20.58 20.9042H18.7622" stroke="#F8C74E" stroke-width="1.5" stroke-linecap="round" stroke-linejoin="round"/>
<path d="M15.289 16.2789H11.3572" stroke="#F8C74E" stroke-width="1.5" stroke-linecap="round" stroke-linejoin="round"/>
<path d="M16.4233 23.2336C17.6867 23.2336 18.7108 22.2094 18.7108 20.946C18.7108 19.6826 17.6867 18.6585 16.4233 18.6585C15.1599 18.6585 14.1357 19.6826 14.1357 20.946C14.1357 22.2094 15.1599 23.2336 16.4233 23.2336Z" stroke="#F8C74E" stroke-width="1.5" stroke-linecap="round" stroke-linejoin="round"/>
<path d="M5.93568 23.2336C7.19907 23.2336 8.22324 22.2094 8.22324 20.946C8.22324 19.6826 7.19907 18.6585 5.93568 18.6585C4.67229 18.6585 3.64812 19.6826 3.64812 20.946C3.64812 22.2094 4.67229 23.2336 5.93568 23.2336Z" stroke="#F8C74E" stroke-width="1.5" stroke-linecap="round" stroke-linejoin="round"/>
<path d="M8.22173 20.9453H14.1449" stroke="#F8C74E" stroke-width="1.5" stroke-linecap="round" stroke-linejoin="round"/>
</svg>
