<svg width="21" height="21" viewBox="0 0 21 21" fill="none" xmlns="http://www.w3.org/2000/svg">
<circle cx="10.4998" cy="10.4998" r="9.99977" fill="#FF6363" stroke="white"/>
<path d="M12.9938 6.48953C12.1586 5.65428 11.5155 5.92037 10.9316 6.48953L7.63861 9.77879C7.5002 9.93482 7.4058 10.1249 7.36512 10.3295L7.17294 11.6821C7.16068 11.7672 7.16834 11.8539 7.19534 11.9354C7.22233 12.017 7.26791 12.0912 7.32848 12.1521C7.38905 12.213 7.46295 12.259 7.54435 12.2865C7.62575 12.314 7.71243 12.3222 7.79753 12.3104L9.15389 12.1182C9.35762 12.0783 9.54668 11.9838 9.70086 11.8447L12.9938 8.55178C13.5519 7.98263 13.818 7.32478 12.9938 6.48953Z" stroke="white" stroke-linecap="round" stroke-linejoin="round"/>
<path d="M10.4467 6.96279C10.9091 7.15411 11.3293 7.43473 11.6831 7.78859C12.037 8.14245 12.3176 8.56262 12.5089 9.02505" stroke="white" stroke-linecap="round" stroke-linejoin="round"/>
<path d="M7.15442 14.0881H13.5112" stroke="white" stroke-linecap="round" stroke-linejoin="round"/>
</svg>
