<svg width="369" height="24" viewBox="0 0 369 24" fill="none" xmlns="http://www.w3.org/2000/svg">
<path d="M350.567 9.69215H352.648C354.728 9.69215 355.768 8.61355 355.768 6.45635V4.29916C355.768 2.14196 354.728 1.06336 352.648 1.06336H350.567C348.487 1.06336 347.447 2.14196 347.447 4.29916V6.45635C347.447 8.61355 348.487 9.69215 350.567 9.69215Z" stroke="#8E949A" stroke-width="1.5" stroke-miterlimit="10" stroke-linecap="round" stroke-linejoin="round"/>
<path d="M363.048 9.69215H365.128C367.208 9.69215 368.248 8.61355 368.248 6.45635V4.29916C368.248 2.14196 367.208 1.06336 365.128 1.06336H363.048C360.968 1.06336 359.928 2.14196 359.928 4.29916V6.45635C359.928 8.61355 360.968 9.69215 363.048 9.69215Z" stroke="#8E949A" stroke-width="1.5" stroke-miterlimit="10" stroke-linecap="round" stroke-linejoin="round"/>
<path d="M363.048 22.6354H365.128C367.208 22.6354 368.248 21.5568 368.248 19.3996V17.2424C368.248 15.0852 367.208 14.0066 365.128 14.0066H363.048C360.968 14.0066 359.928 15.0852 359.928 17.2424V19.3996C359.928 21.5568 360.968 22.6354 363.048 22.6354Z" stroke="#8E949A" stroke-width="1.5" stroke-miterlimit="10" stroke-linecap="round" stroke-linejoin="round"/>
<path d="M350.567 22.6354H352.648C354.728 22.6354 355.768 21.5568 355.768 19.3996V17.2424C355.768 15.0852 354.728 14.0066 352.648 14.0066H350.567C348.487 14.0066 347.447 15.0852 347.447 17.2424V19.3996C347.447 21.5568 348.487 22.6354 350.567 22.6354Z" stroke="#8E949A" stroke-width="1.5" stroke-miterlimit="10" stroke-linecap="round" stroke-linejoin="round"/>
<path d="M276.717 22.7791V10.8786C276.717 9.72659 276.246 9.31588 275.154 9.31588H274.383C273.291 9.31588 272.82 9.72659 272.82 10.8786V22.7791" stroke="#8E949A" stroke-width="1.5" stroke-linecap="round" stroke-linejoin="round"/>
<path d="M269.185 22.7791V14.1342C269.185 12.9822 268.714 12.5715 267.622 12.5715H266.841C265.749 12.5715 265.288 12.9822 265.288 14.1342V22.7791" stroke="#8E949A" stroke-width="1.5" stroke-linecap="round" stroke-linejoin="round"/>
<path d="M261.612 22.7796V17.4104C261.612 16.2584 261.141 15.8477 260.049 15.8477H259.268C258.176 15.8477 257.715 16.2584 257.715 17.4104V22.7997" stroke="#8E949A" stroke-width="1.5" stroke-linecap="round" stroke-linejoin="round"/>
<path d="M256.213 22.7795H278.251" stroke="#8E949A" stroke-width="1.5" stroke-linecap="round" stroke-linejoin="round"/>
<path d="M257.704 7.57284L275.816 3.01497" stroke="#8E949A" stroke-width="1.5" stroke-linecap="round" stroke-linejoin="round"/>
<path d="M274.714 6.39103L276.137 3.80657C276.291 3.52759 276.328 3.19888 276.239 2.8927C276.151 2.58653 275.945 2.32793 275.666 2.17375L273.082 0.751296" stroke="#8E949A" stroke-width="1.5" stroke-linecap="round" stroke-linejoin="round"/>
<path d="M183.387 0.751296H176.776C172.516 0.751296 169.062 4.20466 169.062 8.4646V15.076C169.062 19.336 172.516 22.7893 176.776 22.7893H183.387C187.647 22.7893 191.1 19.336 191.1 15.076V8.4646C191.1 4.20466 187.647 0.751296 183.387 0.751296Z" stroke="#8E949A" stroke-width="1.5" stroke-linecap="round" stroke-linejoin="round"/>
<path d="M172.869 11.7703H187.293" stroke="#8E949A" stroke-width="1.5" stroke-linecap="round" stroke-linejoin="round"/>
<path d="M187.294 8.36404C187.164 5.8497 186.042 4.72777 183.528 4.60756" stroke="#8E949A" stroke-width="1.5" stroke-linecap="round" stroke-linejoin="round"/>
<path d="M172.869 8.36404C172.999 5.8497 174.121 4.72777 176.635 4.60756" stroke="#8E949A" stroke-width="1.5" stroke-linecap="round" stroke-linejoin="round"/>
<path d="M172.869 15.2265C172.999 17.7408 174.121 18.8627 176.635 18.993" stroke="#8E949A" stroke-width="1.5" stroke-linecap="round" stroke-linejoin="round"/>
<path d="M187.294 15.2265C187.164 17.7408 186.042 18.8627 183.528 18.993" stroke="#8E949A" stroke-width="1.5" stroke-linecap="round" stroke-linejoin="round"/>
<path d="M96.733 7.78198H88.9396" stroke="#8E949A" stroke-width="1.5" stroke-linecap="round" stroke-linejoin="round"/>
<path d="M90.4314 7.78198V11.9492C90.4314 14.0428 90.6418 14.4234 92.8857 14.4034C95.1296 14.3834 95.3499 14.0127 95.3499 11.9191V7.78198" stroke="#8E949A" stroke-width="1.5" stroke-linecap="round" stroke-linejoin="round"/>
<path d="M92.1746 22.8579C92.3656 23.009 92.6021 23.0913 92.8457 23.0913C93.0893 23.0913 93.3258 23.009 93.5169 22.8579C95.6205 21.2652 101.791 16.0562 101.761 9.97568C101.801 8.77908 101.6 7.58665 101.17 6.46935C100.74 5.35206 100.089 4.33274 99.2568 3.47209C98.4245 2.61143 97.4275 1.92703 96.3253 1.45961C95.223 0.992189 94.038 0.751296 92.8407 0.751296C91.6434 0.751296 90.4584 0.992189 89.3562 1.45961C88.2539 1.92703 87.257 2.61143 86.4247 3.47209C85.5924 4.33274 84.9418 5.35206 84.5115 6.46935C84.0813 7.58665 83.8802 8.77908 83.9203 9.97568C83.9203 15.986 90.091 21.2652 92.1746 22.8679" stroke="#8E949A" stroke-width="1.5" stroke-linecap="round" stroke-linejoin="round"/>
<path d="M24.8128 8.49673L15.475 1.69863C14.697 1.13345 13.7601 0.829067 12.7985 0.829067C11.8369 0.829067 10.8999 1.13345 10.1219 1.69863L0.751296 8.49673" stroke="#8E949A" stroke-width="1.5" stroke-linecap="round" stroke-linejoin="round"/>
<path d="M16.2627 22.5309V18.1521C16.2627 15.1855 15.9671 14.6491 12.7816 14.671C9.78208 14.671 9.28947 15.2402 9.28947 18.2068V22.5856" stroke="#8E949A" stroke-width="1.5" stroke-linecap="round" stroke-linejoin="round"/>
<path d="M3.23605 6.67949V15.1415C3.23605 21.4798 3.84909 22.6293 10.68 22.5746L14.8618 22.5198C21.2548 22.4651 22.3057 21.3047 22.3057 14.9664V6.67949" stroke="#8E949A" stroke-width="1.5" stroke-linecap="round" stroke-linejoin="round"/>
</svg>
