<svg width="23" height="24" viewBox="0 0 23 24" fill="none" xmlns="http://www.w3.org/2000/svg">
<path d="M8.77201 16.4271C8.87157 16.8267 9.10008 17.1823 9.42217 17.4389C9.74425 17.6955 10.1419 17.8387 10.5537 17.8464H12.6574C13.0962 17.8333 13.5119 17.6469 13.8137 17.3282C14.1155 17.0094 14.2788 16.5841 14.2679 16.1453C14.3156 15.7862 14.2289 15.4222 14.0245 15.1231C13.8202 14.824 13.5126 14.6109 13.1607 14.5247L9.80879 13.3571C9.4558 13.2729 9.1468 13.0603 8.94209 12.7607C8.73737 12.461 8.65162 12.0959 8.70155 11.7365C8.69071 11.2976 8.85404 10.8724 9.15582 10.5536C9.45761 10.2348 9.87332 10.0485 10.3121 10.0353H12.4158C12.8196 10.0394 13.2113 10.1739 13.5324 10.4188C13.8535 10.6637 14.0868 11.0059 14.1975 11.3942" stroke="#FF6363" stroke-width="1.5" stroke-linecap="round" stroke-linejoin="round"/>
<path d="M11.4892 8.89803V18.9638" stroke="#FF6363" stroke-width="1.5" stroke-linecap="round" stroke-linejoin="round"/>
<path d="M6.83964 5.22416V4.34843C6.83964 2.33527 6.83965 0.754936 10.4331 0.754936H12.2349C15.8284 0.754936 15.8284 2.3554 15.8284 4.34843V5.24429" stroke="#FF6363" stroke-width="1.5" stroke-linecap="round" stroke-linejoin="round"/>
<path d="M21.7774 7.81163C21.6973 7.39608 21.5019 7.01144 21.2136 6.70172C20.9252 6.39199 20.5555 6.16966 20.1467 6.06017C14.4671 4.58039 8.50306 4.58039 2.82344 6.06017C2.41466 6.16966 2.04495 6.39199 1.75658 6.70172C1.46821 7.01144 1.27283 7.39608 1.19278 7.81163C0.608988 11.8606 0.608988 15.9724 1.19278 20.0215C1.27523 20.4462 1.48027 20.8374 1.78259 21.1469C2.08491 21.4563 2.47125 21.6705 2.8939 21.7628C8.57694 23.2426 14.5442 23.2426 20.2272 21.7628C20.6311 21.6578 20.9968 21.4403 21.2819 21.1356C21.567 20.8309 21.7598 20.4515 21.8378 20.0416C22.3996 15.9828 22.3793 11.8646 21.7774 7.81163Z" stroke="#FF6363" stroke-width="1.5" stroke-linecap="round" stroke-linejoin="round"/>
</svg>
