<svg width="28" height="28" viewBox="0 0 28 28" fill="none" xmlns="http://www.w3.org/2000/svg">
<path opacity="0.3" d="M1.40002 5.6001C0.56001 5.6001 0 5.04009 0 4.20007V1.40002C0 0.56001 0.56001 0 1.40002 0H4.20007C5.04009 0 5.6001 0.56001 5.6001 1.40002C5.6001 2.24004 5.04009 2.80005 4.20007 2.80005H2.80005V4.20007C2.80005 5.04009 2.24004 5.6001 1.40002 5.6001ZM28.0005 4.20007V1.40002C28.0005 0.56001 27.4405 0 26.6005 0H23.8004C22.9604 0 22.4004 0.56001 22.4004 1.40002C22.4004 2.24004 22.9604 2.80005 23.8004 2.80005H25.2004V4.20007C25.2004 5.04009 25.7604 5.6001 26.6005 5.6001C27.4405 5.6001 28.0005 5.04009 28.0005 4.20007ZM5.6001 26.6005C5.6001 25.7604 5.04009 25.2004 4.20007 25.2004H2.80005V23.8004C2.80005 22.9604 2.24004 22.4004 1.40002 22.4004C0.56001 22.4004 0 22.9604 0 23.8004V26.6005C0 27.4405 0.56001 28.0005 1.40002 28.0005H4.20007C5.04009 28.0005 5.6001 27.4405 5.6001 26.6005ZM28.0005 26.6005V23.8004C28.0005 22.9604 27.4405 22.4004 26.6005 22.4004C25.7604 22.4004 25.2004 22.9604 25.2004 23.8004V25.2004H23.8004C22.9604 25.2004 22.4004 25.7604 22.4004 26.6005C22.4004 27.4405 22.9604 28.0005 23.8004 28.0005H26.6005C27.4405 28.0005 28.0005 27.4405 28.0005 26.6005Z" fill="#F9F9FB"/>
<path d="M1.40002 19.6C0.56001 19.6 0 19.04 0 18.2V9.79982C0 8.95981 0.56001 8.3998 1.40002 8.3998C2.24004 8.3998 2.80005 8.95981 2.80005 9.79982V18.2C2.80005 19.04 2.24004 19.6 1.40002 19.6ZM15.4003 18.2V9.79982C15.4003 8.95981 14.8403 8.3998 14.0002 8.3998C13.1602 8.3998 12.6002 8.95981 12.6002 9.79982V18.2C12.6002 19.04 13.1602 19.6 14.0002 19.6C14.8403 19.6 15.4003 19.04 15.4003 18.2ZM21.0004 18.2V9.79982C21.0004 8.95981 20.4403 8.3998 19.6003 8.3998C18.7603 8.3998 18.2003 8.95981 18.2003 9.79982V18.2C18.2003 19.04 18.7603 19.6 19.6003 19.6C20.4403 19.6 21.0004 19.04 21.0004 18.2ZM9.80017 18.2V9.79982C9.80017 8.95981 9.24016 8.3998 8.40014 8.3998H7.00012C6.16011 8.3998 5.6001 8.95981 5.6001 9.79982V18.2C5.6001 19.04 6.16011 19.6 7.00012 19.6H8.40014C9.24016 19.6 9.80017 19.04 9.80017 18.2ZM28.0005 18.2V9.79982C28.0005 8.95981 27.4405 8.3998 26.6005 8.3998H25.2004C24.3604 8.3998 23.8004 8.95981 23.8004 9.79982V18.2C23.8004 19.04 24.3604 19.6 25.2004 19.6H26.6005C27.4405 19.6 28.0005 19.04 28.0005 18.2Z" fill="#F9F9FB"/>
</svg>
