<svg width="21" height="21" viewBox="0 0 21 21" fill="none" xmlns="http://www.w3.org/2000/svg">
<circle cx="10.4998" cy="10.4998" r="9.99977" fill="#FF6363" stroke="white"/>
<path d="M14.7335 8.4434C14.9428 8.4434 15.1141 8.27212 15.1141 8.06277V7.00462C15.1141 6.79527 14.9428 6.62399 14.7335 6.62399H6.3596C6.15026 6.62399 5.97897 6.79527 5.97897 7.00462V13.3802V13.384V14.1186H5.998C6.03987 14.2861 6.18071 14.4117 6.3596 14.4117H14.7335C14.9124 14.4117 15.057 14.2861 15.0951 14.1186H15.1141V14.0349C15.1141 14.0349 15.1141 14.0349 15.1141 14.0311V9.57007C15.1141 9.36072 14.9428 9.18944 14.7335 9.18944C14.5241 9.18944 14.3528 9.36072 14.3528 9.57007V12.2992L12.4497 9.91263C12.3812 9.82509 12.2784 9.7756 12.1718 9.76799C12.0576 9.76038 11.9587 9.80225 11.8787 9.88218L9.53787 12.2421L8.23611 10.9289C8.15618 10.849 8.0458 10.8071 7.93541 10.8185C7.82503 10.8261 7.72226 10.8832 7.65755 10.9708L6.74023 12.2231V7.38905H14.3528V8.06658C14.3528 8.27212 14.5241 8.4434 14.7335 8.4434Z" fill="white"/>
<path d="M8.58175 9.04835C8.58175 9.5584 8.99664 9.97329 9.50668 9.97329C10.0167 9.97329 10.4316 9.5584 10.4316 9.04835C10.4316 8.53831 10.0167 8.12342 9.50668 8.12342C8.99664 8.12342 8.58175 8.53831 8.58175 9.04835Z" fill="white"/>
</svg>
