<svg width="14" height="14" viewBox="0 0 14 14" fill="none" xmlns="http://www.w3.org/2000/svg">
<path d="M2.968 2.18913C3.14319 2.18913 3.31839 2.18475 3.49358 2.18913C3.63812 2.19351 3.72134 2.14971 3.75199 1.99204C3.80455 1.72925 3.87901 1.47083 3.94909 1.21242C4.01917 0.954011 4.1199 0.704358 4.28196 0.485365C4.59731 0.064898 5.09223 -0.0796376 5.58278 0.108697C5.84995 0.218193 6.0777 0.389008 6.30108 0.568583C6.45875 0.695599 6.60329 0.835754 6.76972 0.958391C7.05003 1.16424 6.95368 1.173 7.22085 0.949631C7.48364 0.730638 7.72015 0.489745 8.00046 0.297031C8.21946 0.148115 8.45159 0.0210993 8.71876 0.00357983C9.21807 -0.0314591 9.5816 0.191914 9.82687 0.621141C10.0196 0.958391 10.0809 1.33944 10.1816 1.70735C10.3349 2.26797 10.1904 2.16723 10.7861 2.16285C11.1408 2.15847 11.4956 2.09278 11.8504 2.15409C12.63 2.28987 13.0067 2.86363 12.8315 3.63887C12.7526 3.9805 12.5993 4.29585 12.4767 4.62434C12.3103 5.07109 12.2752 4.93969 12.665 5.1981C12.9147 5.36454 13.1818 5.50907 13.414 5.69741C13.6242 5.86822 13.8125 6.06093 13.9133 6.31497C14.0929 6.77047 13.9877 7.17342 13.6636 7.52819C13.4578 7.75156 13.1994 7.90924 12.9366 8.05377C12.7833 8.13699 12.6387 8.23773 12.4854 8.32095C12.3672 8.38664 12.3409 8.45672 12.3935 8.58374C12.4986 8.82901 12.5949 9.07866 12.6913 9.32831C12.7614 9.51227 12.8183 9.7006 12.8534 9.89332C12.9716 10.6072 12.5292 11.181 11.8066 11.2642C11.4693 11.3036 11.1408 11.2686 10.808 11.2423C10.3043 11.2029 10.3043 11.2029 10.1816 11.6934C10.0984 12.0263 10.0327 12.3679 9.89257 12.6833C9.66919 13.1826 9.13923 13.5768 8.44721 13.3271C8.11434 13.2089 7.81213 13.0381 7.5581 12.784C7.43108 12.657 7.28217 12.5519 7.14639 12.4336C7.03689 12.3417 6.95806 12.3548 6.85294 12.438C6.62957 12.6088 6.43247 12.8015 6.21786 12.9855C6.0339 13.1432 5.84119 13.2833 5.61344 13.3753C5.09223 13.5855 4.55789 13.4279 4.24254 12.9592C4.04983 12.6745 3.96223 12.346 3.88339 12.0132C3.83521 11.8205 3.78265 11.6321 3.73885 11.4394C3.71258 11.3299 3.65564 11.2949 3.54614 11.2949C3.26583 11.2861 2.9899 11.3299 2.70959 11.3343C2.54753 11.3343 2.3811 11.3431 2.21904 11.3212C1.40001 11.2204 0.983918 10.616 1.17225 9.81448C1.25985 9.44657 1.43066 9.10932 1.55768 8.75017C1.67594 8.41292 1.7066 8.51366 1.40877 8.30781C1.14159 8.12823 0.852522 7.97494 0.60287 7.77346C0.379497 7.59827 0.182403 7.40117 0.081666 7.12962C-0.0891488 6.68726 0.015968 6.29307 0.322559 5.94268C0.528412 5.71055 0.786824 5.54411 1.04962 5.38644C1.21605 5.2857 1.38249 5.1762 1.5533 5.07546C1.6409 5.02291 1.64966 4.96597 1.619 4.87399C1.49636 4.51484 1.32117 4.18197 1.21605 3.81844C1.15035 3.59069 1.10217 3.35856 1.13721 3.12204C1.21605 2.59646 1.619 2.22855 2.17524 2.15847C2.43365 2.13219 2.70083 2.14095 2.968 2.18913ZM9.76117 5.02729C9.76117 4.73384 9.57722 4.47104 9.30129 4.37031C9.01659 4.26519 8.71 4.34841 8.51729 4.5893C7.79023 5.49155 7.06317 6.39818 6.3405 7.3092C6.26166 7.40555 6.21786 7.42745 6.1215 7.32672C5.88937 7.07706 5.6441 6.84055 5.4032 6.60404C5.10099 6.30621 4.67615 6.30183 4.39145 6.5909C4.11552 6.86683 4.1199 7.30044 4.40459 7.59389C4.85572 8.05377 5.31561 8.50928 5.77549 8.96479C6.10836 9.29328 6.55949 9.267 6.85294 8.90347C7.77271 7.76032 8.6881 6.6128 9.6035 5.46965C9.70861 5.33826 9.76117 5.19372 9.76117 5.02729Z" fill="#FF6363"/>
</svg>
