<svg width="19" height="28" viewBox="0 0 19 28" fill="none" xmlns="http://www.w3.org/2000/svg">
<g clip-path="url(#clip0_20_3235)">
<path d="M9.50018 11.764C8.78645 11.764 8.07272 11.764 7.359 11.764C6.52221 11.764 6.00537 11.2225 6.00537 10.3857C6.00537 9.45052 6.00537 8.51529 6.00537 7.58006C6.00537 6.76789 6.54682 6.22644 7.359 6.22644C8.78645 6.22644 10.2139 6.22644 11.6414 6.22644C12.4535 6.22644 12.995 6.76789 12.995 7.58006C12.995 8.5399 12.995 9.47513 12.995 10.435C12.995 11.2225 12.4535 11.764 11.666 11.764C10.9276 11.7886 10.2139 11.764 9.50018 11.764ZM9.50018 8.46607C8.63878 8.46607 7.802 8.46607 6.9406 8.46607C6.76833 8.46607 6.69449 8.51529 6.69449 8.68757C6.69449 9.25363 6.69449 9.8443 6.69449 10.4104C6.69449 10.8288 6.89138 11.0503 7.30977 11.0503C8.73723 11.0503 10.1893 11.0503 11.6168 11.0503C12.0105 11.0503 12.232 10.8288 12.232 10.435C12.232 9.8443 12.232 9.27824 12.232 8.68757C12.232 8.51529 12.1828 8.46607 12.0105 8.46607C11.1984 8.46607 10.3616 8.46607 9.50018 8.46607ZM9.47557 7.72773C10.2877 7.72773 11.1245 7.72773 11.9367 7.72773C12.2813 7.72773 12.3551 7.58006 12.2074 7.26011C12.109 7.06322 11.9367 6.96478 11.7152 6.96478C10.2385 6.96478 8.76184 6.96478 7.28516 6.96478C6.96522 6.96478 6.76832 7.18628 6.74371 7.48161C6.7191 7.65389 6.76832 7.72773 6.96522 7.72773C7.77739 7.72773 8.63879 7.72773 9.47557 7.72773Z" fill="#8E949A"/>
<path d="M8.07263 10.3609C7.90035 10.3609 7.72807 10.3609 7.55579 10.3609C7.3589 10.3363 7.26045 10.2379 7.23584 10.041C7.21123 9.84409 7.30967 9.69642 7.50657 9.6472C7.87573 9.59798 8.26952 9.59798 8.63869 9.6472C8.83558 9.67181 8.93402 9.81948 8.93402 10.0164C8.90941 10.2133 8.81097 10.3363 8.58946 10.3363C8.41718 10.3855 8.2449 10.3609 8.07263 10.3609Z" fill="#8E949A"/>
<path d="M9.50016 0C14.4224 0 18.5325 3.76553 18.9509 8.66318C19.074 10.066 18.6802 11.3458 18.1387 12.601C17.1543 14.7914 15.8253 16.7357 14.3732 18.6308C12.995 20.4274 11.5429 22.1502 9.96777 23.7991C9.62321 24.1437 9.32788 24.1683 9.00793 23.8238C6.47296 21.0919 4.06106 18.2124 2.11676 14.9883C1.27998 13.6101 0.541638 12.1826 0.172468 10.6075C-0.17209 9.10619 0.0494115 7.65412 0.590861 6.25127C1.96909 2.70724 4.6025 0.639894 8.39265 0.073834C8.76182 0 9.13099 0.0246113 9.50016 0ZM9.50016 0.93523C6.15302 0.93523 3.10121 2.95336 1.79682 6.05438C1.15692 7.58029 0.886196 9.1308 1.35381 10.7798C1.7722 12.2318 2.48593 13.5362 3.27349 14.7914C5.04551 17.5971 7.13747 20.1321 9.3771 22.5932C9.52477 22.7409 9.57399 22.667 9.67244 22.5686C10.9768 21.1411 12.232 19.6644 13.4134 18.1139C14.767 16.3419 16.0222 14.5207 16.982 12.5025C17.6465 11.1243 18.0403 9.72147 17.8188 8.14635C17.2281 4.03626 13.6841 0.910619 9.50016 0.93523Z" fill="#8E949A"/>
<path d="M9.50028 27.8109C7.77749 27.7863 6.0547 27.5648 4.47957 26.8265C3.86429 26.5311 3.29823 26.162 2.85523 25.6205C2.19072 24.7837 2.19072 23.7747 2.85523 22.9379C3.51973 22.1011 4.43035 21.6827 5.4148 21.3628C5.68553 21.2643 5.98086 21.4612 6.0547 21.7319C6.12853 22.0027 6.00547 22.2734 5.73475 22.3964C5.51325 22.4949 5.26713 22.5687 5.04563 22.6918C4.60263 22.8887 4.20885 23.1348 3.86429 23.4793C3.34745 24.0208 3.32284 24.5622 3.86429 25.1037C4.35652 25.6205 4.99641 25.9159 5.66092 26.1374C7.1376 26.6542 8.6635 26.7773 10.2386 26.7034C11.5676 26.6296 12.872 26.4081 14.078 25.842C14.4964 25.6451 14.8902 25.399 15.1855 25.0791C15.6531 24.5622 15.6777 24.0454 15.1855 23.5286C14.6933 22.9871 14.0534 22.7164 13.3643 22.4703C13.1428 22.3964 12.9705 22.2734 12.9213 22.0519C12.8228 21.6335 13.192 21.2889 13.6104 21.412C14.4964 21.7073 15.3332 22.1011 15.9731 22.7902C16.8591 23.7255 16.8591 24.9314 15.9731 25.8666C15.3086 26.5804 14.4718 26.9741 13.5611 27.2695C12.3306 27.614 10.9277 27.8109 9.50028 27.8109Z" fill="#8E949A"/>
<path d="M16.3667 9.13056C16.3667 13.216 12.7243 16.4401 8.66339 15.9233C5.04553 15.4557 2.46134 12.3793 2.63362 8.73678C2.78129 5.48809 5.34087 2.70701 8.56495 2.31323C10.7554 2.0425 12.675 2.65778 14.2748 4.18369C14.4471 4.33135 14.5455 4.50363 14.5209 4.74975C14.4717 4.94664 14.3732 5.11892 14.1517 5.16814C13.9302 5.24197 13.7333 5.19275 13.561 5.02047C13.0442 4.52824 12.4781 4.13446 11.8136 3.83913C8.31884 2.31323 4.30719 4.55286 3.79035 8.31839C3.34735 11.4932 5.51314 14.3974 8.76184 14.8158C11.9367 15.2342 14.7424 13.0438 15.21 9.94273C15.3084 9.30284 15.2838 8.63833 15.1608 7.99844C15.0869 7.60466 15.2592 7.30932 15.6038 7.2601C15.8991 7.21088 16.1452 7.43238 16.2191 7.80155C16.3421 8.21994 16.3667 8.68756 16.3667 9.13056Z" fill="#8E949A"/>
</g>
<defs>
<clipPath id="clip0_20_3235">
<rect width="18.7172" height="27.397" fill="white" transform="scale(1.0151)"/>
</clipPath>
</defs>
</svg>
