<svg width="62" height="81" viewBox="0 0 62 81" fill="none" xmlns="http://www.w3.org/2000/svg">
<path d="M0 40.4017C0 29.2045 0 17.9418 0 6.74454C0 3.27405 2.16087 0.654809 5.43492 0.0654809C5.8278 0 6.28617 0 6.74454 0C16.1738 0 25.603 0 35.0323 0C38.9612 0 41.7114 2.7502 41.7768 6.74454C41.7768 9.03637 41.7768 11.3937 41.7768 13.6855C41.7768 14.2748 41.9733 14.4058 42.4971 14.4058C46.4915 14.4058 50.5513 14.4058 54.5456 14.4058C58.54 14.4058 61.2902 17.156 61.3556 21.1503C61.3556 25.3411 61.3556 29.5974 61.3556 33.7882C61.3556 37.717 58.6054 40.4672 54.6111 40.4672C50.6168 40.4672 46.6879 40.4672 42.6936 40.4672C41.9733 40.4672 41.7768 40.5982 41.7768 41.384C41.7768 52.3193 41.7768 63.2546 41.7768 74.1899C41.7768 77.3985 39.9434 79.8867 37.1277 80.738C36.4729 80.9344 35.8181 80.9999 35.0978 80.9999C25.6685 80.9999 16.1738 80.9999 6.74454 80.9999C2.81568 80.9999 0.0654809 78.2497 0.0654809 74.3209C0 62.9272 0 51.6645 0 40.4017ZM2.61924 37.848C2.61924 46.6879 2.61924 55.5933 2.61924 64.4332C2.61924 65.0226 2.68472 65.2845 3.40501 65.2845C15.0606 65.2845 26.7817 65.2845 38.4373 65.2845C39.0266 65.2845 39.1576 65.1535 39.1576 64.5642C39.1576 56.772 39.1576 48.9797 39.1576 41.1875C39.1576 40.6637 39.0921 40.4672 38.5028 40.4672C36.4729 40.5327 34.443 40.4672 32.4131 40.4672C31.8892 40.4672 31.6928 40.6637 31.4963 41.0565C31.038 42.3007 30.5141 43.5448 29.9903 44.7235C29.3355 46.1641 28.1568 46.9498 26.5853 46.9498C25.0792 46.9498 23.9005 46.2295 23.2457 44.789C22.6564 43.5448 22.1326 42.3007 21.5432 41.0565C21.3468 40.5982 21.0849 40.3363 20.4955 40.2053C17.7453 39.5505 15.7154 37.0622 15.7154 34.2465C15.6499 29.6629 15.6499 25.1447 15.7154 20.561C15.7809 17.156 18.5966 14.4058 22.0671 14.4058C23.5077 14.4058 24.8828 14.4058 26.3233 14.4058C30.3177 14.4058 34.3775 14.4058 38.3718 14.4058C39.0921 14.4058 39.2886 14.2094 39.2231 13.5546C39.1576 12.8343 39.1576 12.114 39.2231 11.3282C39.2886 10.6079 39.0266 10.4115 38.3063 10.4115C26.7162 10.4115 15.1261 10.4115 3.60145 10.4115C2.88116 10.4115 2.61924 10.5424 2.68472 11.3282C2.61924 20.1681 2.61924 29.0081 2.61924 37.848ZM38.5028 16.9596C33.0679 16.9596 27.633 16.9596 22.198 16.9596C20.0372 16.9596 18.3347 18.5311 18.2692 20.6265C18.2037 25.1447 18.2037 29.6629 18.2692 34.181C18.2692 36.1455 19.8407 37.717 21.7397 37.848C22.5909 37.9135 23.0493 38.2409 23.3112 38.9612C23.966 40.4672 24.6863 41.9078 25.3411 43.4139C25.603 43.9377 25.865 44.3961 26.5198 44.3961C27.1746 44.3961 27.4365 43.9377 27.6984 43.4139C28.2878 41.9733 28.8771 40.5327 29.4664 39.1576C29.9248 38.0444 30.1867 37.9135 31.3654 37.9135C39.0921 37.9135 46.8189 37.9135 54.4801 37.9135C57.0339 37.9135 58.6709 36.3419 58.6709 33.7227C58.6709 29.5319 58.6709 25.3411 58.6709 21.1503C58.6709 18.5966 57.0994 17.025 54.4801 16.9596C49.1762 16.9596 43.8067 16.9596 38.5028 16.9596ZM20.9539 67.8382C15.0606 67.8382 9.23281 67.8382 3.33953 67.8382C2.81568 67.8382 2.55376 67.9037 2.61924 68.5585C2.68472 70.4575 2.61924 72.4219 2.61924 74.3209C2.61924 76.6782 4.25626 78.3152 6.67906 78.3152C16.1738 78.3152 25.6685 78.3152 35.1633 78.3152C37.5861 78.3152 39.1576 76.6782 39.2231 74.2554C39.2231 72.4219 39.2231 70.5884 39.2231 68.8205C39.2231 68.1002 39.0921 67.8382 38.3063 67.9037C32.4785 67.8382 26.7162 67.8382 20.9539 67.8382ZM20.8884 7.85771C23.1148 7.85771 25.3411 7.85771 27.5675 7.85771C31.1689 7.85771 34.7704 7.85771 38.4373 7.85771C38.6992 7.85771 39.0921 8.05416 39.1576 7.53031C39.5505 4.78011 37.717 2.61924 35.0323 2.61924C25.6685 2.61924 16.3048 2.68472 7.00646 2.55376C4.1253 2.55376 2.48828 4.64915 2.61924 6.94098C2.61924 7.72675 2.81568 7.85771 3.53597 7.85771C9.29829 7.79223 15.0606 7.85771 20.8884 7.85771Z" fill="white"/>
<path d="M32.5445 29.9904C29.336 29.9904 26.1274 29.9904 22.9188 29.9904C22.264 29.9904 22.1331 29.7939 22.1986 29.2046C22.1986 27.3711 22.1986 27.3711 24.032 27.3711C30.0563 27.3711 36.146 27.3711 42.1702 27.3711C42.8251 27.3711 43.087 27.4366 43.0215 28.1569C42.956 29.9904 43.0215 29.9904 41.188 29.9904C38.3723 29.9904 35.4257 29.9904 32.5445 29.9904Z" fill="white"/>
<path d="M44.9858 24.8174C41.9737 24.8174 38.9616 24.8174 35.9495 24.8174C35.3601 24.8174 35.1637 24.6209 35.1637 24.0316C35.1637 22.1981 35.1637 22.1981 36.9972 22.1981C42.6285 22.1981 48.3254 22.1981 53.9567 22.1981C54.6115 22.1981 54.7425 22.3946 54.7425 22.9839C54.677 24.8174 54.7425 24.8174 52.909 24.8174C50.3553 24.8174 47.6706 24.8174 44.9858 24.8174Z" fill="white"/>
<path d="M27.3711 22.1981C28.9427 22.1981 30.4487 22.1981 32.0203 22.1981C32.4786 22.1981 32.6096 22.3291 32.6096 22.7875C32.6751 24.8174 32.6751 24.8174 30.7107 24.8174C28.0914 24.8174 25.4722 24.8174 22.9184 24.8174C22.3291 24.8174 22.1981 24.6864 22.1981 24.0971C22.1981 22.1981 22.1981 22.1981 24.0971 22.1981C25.1448 22.1981 26.258 22.1981 27.3711 22.1981Z" fill="white"/>
<path d="M50.1583 29.9901C48.8487 29.9901 47.4736 29.9901 46.164 29.9901C45.4437 29.9901 45.5747 29.5317 45.6402 29.2043C45.8366 28.615 45.0508 27.5018 46.0985 27.4363C48.7832 27.3054 51.5334 27.3709 54.2182 27.3709C54.611 27.3709 54.6765 27.5018 54.742 27.8947C54.873 29.9901 54.873 29.9901 52.8431 29.9901C51.9918 29.9901 51.0751 29.9901 50.1583 29.9901Z" fill="white"/>
</svg>
