<svg width="33" height="33" viewBox="0 0 33 33" fill="none" xmlns="http://www.w3.org/2000/svg">
<path d="M14.8609 13.5368C15.0501 13.8878 15.1404 14.2837 15.1219 14.6822C15.1035 15.0806 14.9772 15.4665 14.7564 15.7986L12.1686 19.9744C11.9765 20.2844 11.669 20.5053 11.3139 20.5886C10.9589 20.6719 10.5853 20.6107 10.2753 20.4186C9.96531 20.2264 9.74438 19.9189 9.66109 19.5639C9.57781 19.2088 9.63898 18.8352 9.83116 18.5252L11.939 15.1249H9.09554C8.74887 15.125 8.40699 15.0439 8.09731 14.8881C7.78762 14.7323 7.51874 14.5061 7.31221 14.2277C7.10569 13.9493 6.96727 13.6263 6.90805 13.2847C6.84883 12.9432 6.87045 12.5925 6.97119 12.2608C7.01244 12.148 9.82841 7.52943 9.82841 7.52943C9.91771 7.36533 10.0395 7.22114 10.1864 7.10568C10.3333 6.99021 10.5021 6.90589 10.6827 6.85786C10.8632 6.80983 11.0517 6.7991 11.2365 6.82632C11.4213 6.85354 11.5987 6.91814 11.7577 7.01618C11.9168 7.11422 12.0541 7.24365 12.1615 7.39655C12.2688 7.54945 12.3439 7.72263 12.3821 7.90551C12.4203 8.08839 12.4208 8.27714 12.3837 8.46023C12.3465 8.64332 12.2724 8.81692 12.1659 8.97042L10.0759 12.3749H12.9249C13.3225 12.3756 13.7124 12.4839 14.0533 12.6885C14.3942 12.8931 14.6733 13.1862 14.8609 13.5368ZM32.9997 4.12496V7.56243C32.9999 8.35487 32.7262 9.12303 32.2251 9.73691C31.724 10.3508 31.0262 10.7727 30.2497 10.9312V23.3748C30.2497 24.8335 29.6703 26.2324 28.6388 27.2638C27.6074 28.2953 26.2085 28.8747 24.7498 28.8747H21.4251C20.8889 30.0998 20.0076 31.1422 18.8888 31.8747C17.77 32.6073 16.4621 32.9982 15.1249 32.9997H6.87494C5.05226 32.9975 3.30486 32.2725 2.01603 30.9837C0.727206 29.6948 0.00218328 27.9474 0 26.1248L0 6.87494C0.00218328 5.05226 0.727206 3.30486 2.01603 2.01603C3.30486 0.727206 5.05226 0.00218328 6.87494 0L15.1249 0C16.9475 0.00218328 18.6949 0.727206 19.9838 2.01603C21.2726 3.30486 21.9976 5.05226 21.9998 6.87494V26.1248H24.7498C25.4791 26.1248 26.1786 25.835 26.6943 25.3193C27.21 24.8036 27.4998 24.1041 27.4998 23.3748V10.9312C26.7233 10.7727 26.0255 10.3508 25.5244 9.73691C25.0233 9.12303 24.7496 8.35487 24.7498 7.56243V4.12496C24.7498 3.76029 24.8946 3.41056 25.1525 3.1527C25.4104 2.89484 25.7601 2.74998 26.1248 2.74998C26.4894 2.74998 26.8392 2.89484 27.097 3.1527C27.3549 3.41056 27.4998 3.76029 27.4998 4.12496V5.49995H30.2497V4.12496C30.2497 3.76029 30.3946 3.41056 30.6525 3.1527C30.9103 2.89484 31.26 2.74998 31.6247 2.74998C31.9894 2.74998 32.3391 2.89484 32.597 3.1527C32.8548 3.41056 32.9997 3.76029 32.9997 4.12496ZM19.2498 26.1248V15.1249H17.8748C17.5102 15.1249 17.1604 14.98 16.9026 14.7221C16.6447 14.4643 16.4999 14.1145 16.4999 13.7499C16.4999 13.3852 16.6447 13.0355 16.9026 12.7776C17.1604 12.5198 17.5102 12.3749 17.8748 12.3749H19.2498V6.87494C19.2498 5.78093 18.8152 4.73173 18.0417 3.95815C17.2681 3.18457 16.2189 2.74998 15.1249 2.74998H6.87494C5.78093 2.74998 4.73173 3.18457 3.95815 3.95815C3.18457 4.73173 2.74998 5.78093 2.74998 6.87494V12.3749H4.12496C4.48963 12.3749 4.83937 12.5198 5.09723 12.7776C5.35509 13.0355 5.49995 13.3852 5.49995 13.7499C5.49995 14.1145 5.35509 14.4643 5.09723 14.7221C4.83937 14.98 4.48963 15.1249 4.12496 15.1249H2.74998V26.1248C2.74998 27.2188 3.18457 28.268 3.95815 29.0416C4.73173 29.8151 5.78093 30.2497 6.87494 30.2497H15.1249C16.2189 30.2497 17.2681 29.8151 18.0417 29.0416C18.8152 28.268 19.2498 27.2188 19.2498 26.1248Z" fill="white"/>
</svg>
